<?xml version="1.0" encoding="UTF-8"?> <svg xmlns="http://www.w3.org/2000/svg" xmlns:xlink="http://www.w3.org/1999/xlink" version="1.1" id="Layer_1" x="0px" y="0px" viewBox="0 0 513.78 424.37" style="enable-background:new 0 0 513.78 424.37;" xml:space="preserve"> <style type="text/css"> .st0{fill:#7DCAE5;} .st1{fill:none;stroke:#232039;stroke-linecap:round;stroke-linejoin:round;stroke-miterlimit:10;} .st2{fill:none;stroke:#8079B4;stroke-miterlimit:10;} .st3{clip-path:url(#SVGID_2_);} .st4{fill:#FFFFFF;stroke:#232039;stroke-miterlimit:10;} .st5{fill:#71C827;} .st6{fill:#FFEFD7;} .st7{fill:#FFE5B9;} .st8{fill:#232039;} .st9{fill:#FFD68F;stroke:#232039;stroke-linecap:round;stroke-linejoin:round;stroke-miterlimit:10;} .st10{fill:none;stroke:#232039;stroke-width:0.45;stroke-linecap:round;stroke-linejoin:round;stroke-miterlimit:10;} .st11{fill:#8079B4;stroke:#232039;stroke-width:0.5;stroke-linecap:round;stroke-linejoin:round;stroke-miterlimit:10;} .st12{fill:#EB5C5D;stroke:#232039;stroke-width:0.5;stroke-linecap:round;stroke-linejoin:round;stroke-miterlimit:10;} .st13{fill:#289F8A;stroke:#232039;stroke-width:0.5;stroke-linecap:round;stroke-linejoin:round;stroke-miterlimit:10;} .st14{fill:#FFD68F;} .st15{fill:#FFB3B7;stroke:#232039;stroke-linecap:round;stroke-linejoin:round;stroke-miterlimit:10;} .st16{fill:#FFD1D1;stroke:#232039;stroke-linecap:round;stroke-linejoin:round;stroke-miterlimit:10;} .st17{fill:none;stroke:#232039;stroke-width:0.8126;stroke-linecap:round;stroke-linejoin:round;stroke-miterlimit:10;} .st18{fill:#FFFFFF;} .st19{fill:none;stroke:#232039;stroke-linejoin:round;stroke-miterlimit:10;} .st20{clip-path:url(#SVGID_4_);} .st21{fill:#2796BD;} .st22{fill:none;stroke:#232039;stroke-miterlimit:10;} .st23{clip-path:url(#SVGID_6_);} .st24{clip-path:url(#SVGID_8_);} .st25{fill:#EB5C5D;} .st26{fill:none;stroke:#289F8A;stroke-width:0.45;stroke-linecap:round;stroke-linejoin:round;stroke-miterlimit:10;} .st27{fill:none;stroke:#EB5C5D;stroke-linecap:round;stroke-miterlimit:10;} .st28{fill:none;stroke:#232039;stroke-linecap:round;stroke-miterlimit:10;} .st29{fill:#232039;stroke:#232039;stroke-linecap:round;stroke-linejoin:round;stroke-miterlimit:10;} .st30{fill:#232039;stroke:#289F8A;stroke-linecap:round;stroke-linejoin:round;stroke-miterlimit:10;} .st31{clip-path:url(#SVGID_10_);} .st32{fill:#289F8A;} .st33{fill:#30B79D;} .st34{fill:none;stroke:#289F8A;stroke-width:6;stroke-linecap:round;stroke-linejoin:round;stroke-miterlimit:10;} </style> <g> <path class="st0" d="M276.85,0.5C146.28,0.5,40.42,106.35,40.42,236.93v149.12h472.86V236.93C513.28,106.35,407.43,0.5,276.85,0.5z "></path> <path class="st1" d="M326.66,73.29"></path> <path class="st2" d="M308.46,61.76"></path> <g> <defs> <path id="SVGID_1_" d="M276.85,0.5C146.28,0.5,40.42,106.35,40.42,236.93v149.12h472.86V236.93 C513.28,106.35,407.43,0.5,276.85,0.5z"></path> </defs> <clipPath id="SVGID_2_"> <use xlink:href="#SVGID_1_" style="overflow:visible;"></use> </clipPath> <g class="st3"> <path class="st4" d="M389.9,68.27c0.37-1.62,0.57-3.31,0.57-5.04c0-12.44-10.08-22.52-22.52-22.52 c-8.53,0-15.95,4.74-19.77,11.74c-3.15-2.44-7.1-3.9-11.39-3.9c-6.78,0-12.71,3.63-15.96,9.05c-1.96-0.96-4.17-1.5-6.5-1.5 c-7.28,0-13.33,5.25-14.58,12.17H389.9z"></path> <path class="st4" d="M546.19,235.54c0.5-2.19,0.77-4.46,0.77-6.8c0-16.77-13.6-30.37-30.37-30.37c-11.51,0-21.52,6.4-26.67,15.83 c-4.25-3.29-9.57-5.26-15.36-5.26c-9.15,0-17.15,4.9-21.53,12.21c-2.65-1.3-5.63-2.02-8.77-2.02c-9.82,0-17.98,7.08-19.67,16.42 H546.19z"></path> <path class="st4" d="M152,393.48c0.64-2.8,0.99-5.72,0.99-8.72c0-21.52-17.44-38.96-38.96-38.96c-14.76,0-27.6,8.21-34.21,20.3 c-5.44-4.22-12.28-6.75-19.7-6.75c-11.73,0-21.99,6.28-27.61,15.66c-3.4-1.66-7.21-2.6-11.25-2.6c-12.6,0-23.06,9.08-25.23,21.06 H152z"></path> </g> </g> <path class="st1" d="M276.85,0.5C146.28,0.5,40.42,106.35,40.42,236.93v149.12h472.86V236.93C513.28,106.35,407.43,0.5,276.85,0.5z "></path> <g> <g> <path class="st5" d="M213.79,312.43"></path> <rect x="317.31" y="226.73" class="st6" width="150.61" height="95.43"></rect> <rect x="317.31" y="243.1" class="st7" width="135.57" height="79.05"></rect> <rect x="317.31" y="226.73" class="st1" width="150.61" height="95.43"></rect> <rect x="292.18" y="253.41" class="st6" width="149.99" height="95.03"></rect> <rect x="292.18" y="269.49" class="st7" width="134.79" height="78.96"></rect> <rect x="292.18" y="253.41" class="st1" width="149.99" height="95.03"></rect> <path class="st1" d="M262.52,283.44"></path> <polyline class="st6" points="267.1,374.29 216.92,424.37 367.54,424.37 417.71,374.3 "></polyline> <polyline class="st1" points="267.1,374.29 220.42,422.01 369.3,422.01 417.71,374.3 "></polyline> <line class="st1" x1="267.09" y1="278.87" x2="262.52" y2="283.44"></line> <polygon class="st8" points="267.09,278.87 417.71,278.87 417.71,374.3 413.14,378.86 262.52,378.86 262.52,283.44 "></polygon> <polygon class="st6" points="417.71,350.81 397.87,370.64 398.04,368.99 417.71,349.33 "></polygon> <polygon class="st6" points="417.71,282.72 398.48,301.94 398.52,298.06 417.71,278.87 "></polygon> <polygon class="st6" points="417.71,346.81 398.04,366.48 398.32,307.08 417.71,287.7 "></polygon> <polygon class="st6" points="357.34,278.88 337.68,298.55 393.75,298.26 413.14,278.87 "></polygon> <polygon class="st6" points="336.98,278.88 317.31,298.55 333.79,298.26 353.17,278.87 "></polygon> <polygon class="st6" points="331.56,278.88 311.89,298.55 313.24,298.26 332.63,278.87 "></polygon> <path class="st1" d="M413.14,283.44"></path> <path class="st1" d="M267.09,278.87"></path> <path class="st1" d="M281.28,264.68"></path> <path class="st1" d="M417.71,278.87"></path> <polygon class="st1" points="267.09,278.87 417.71,278.87 417.71,374.3 413.14,378.86 262.52,378.86 262.52,283.44 "></polygon> <rect x="262.52" y="283.44" class="st9" width="150.61" height="95.43"></rect> <rect x="253.23" y="273.23" class="st8" width="18.6" height="15.63"></rect> <path class="st1" d="M256.41,273.56v-3.8c0-3.54,2.74-6.41,6.12-6.41s6.12,2.87,6.12,6.41v3.96"></path> <line class="st10" x1="263.77" y1="282.19" x2="317.31" y2="226.73"></line> <line class="st10" x1="418.24" y1="278.87" x2="467.93" y2="226.73"></line> <line class="st10" x1="413.14" y1="378.86" x2="467.93" y2="322.15"></line> </g> <g> <rect x="369.1" y="338.24" transform="matrix(-3.627936e-11 -1 1 -3.627936e-11 46.7082 730.3084)" class="st11" width="38.81" height="7.12"></rect> <rect x="366.41" y="346.95" transform="matrix(-5.389194e-11 -1 1 -5.389194e-11 26.412 727.4027)" class="st11" width="20.99" height="7.09"></rect> <rect x="343.2" y="346.95" transform="matrix(-5.441152e-11 -1 1 -5.441152e-11 3.2007 704.1915)" class="st11" width="20.99" height="7.09"></rect> <rect x="349.88" y="342.02" transform="matrix(-3.630956e-11 -1 1 -3.630956e-11 19.7436 710.8691)" class="st11" width="30.86" height="7.09"></rect> </g> <polygon class="st12" points="374.91,306.99 366.31,303.84 348.68,310.14 335.49,305.04 310.68,313.41 300.17,308.93 283.87,315.3 283.81,321.42 299.83,314.98 310.38,319.47 335.07,310.95 348.28,316.06 366.65,309.6 375.67,312.87 392.13,306.39 392.19,300.32 "></polygon> <g> <rect x="283.65" y="342.44" class="st13" width="43.67" height="7.09"></rect> <rect x="283.65" y="353.99" class="st13" width="34.35" height="7.09"></rect> <rect x="283.47" y="330.87" class="st13" width="50.12" height="7.12"></rect> </g> </g> <g> <g> <path class="st14" d="M474.49,111.61"></path> <path class="st14" d="M467.82,113.05"></path> <path class="st15" d="M467.82,113.05l-8.1,8.14h0c6.58,0,12.24-3.94,14.76-9.58C472.45,112.53,470.2,113.05,467.82,113.05 L467.82,113.05z"></path> </g> <g> <path class="st14" d="M485.39,122.63"></path> <path class="st15" d="M475.89,137.35l8.1-8.14c0-2.34,0.5-4.57,1.4-6.58C479.79,125.17,475.89,130.8,475.89,137.35z"></path> <path class="st14" d="M483.98,129.21"></path> </g> <path class="st1" d="M483.98,129.21c0-8.93,7.24-16.16,16.16-16.16l0,0"></path> <path class="st1" d="M483.98,96.89c0,8.93-7.24,16.16-16.16,16.16l0,0"></path> <path class="st15" d="M475.89,105.03c0,8.93,7.24,16.16,16.16,16.16l0,0l0,0l8.1-8.14l0,0l0,0c-8.93,0-16.16-7.24-16.16-16.16 L475.89,105.03"></path> <g> <line class="st1" x1="475.89" y1="105.03" x2="483.98" y2="96.89"></line> </g> <g> <line class="st1" x1="492.05" y1="121.19" x2="500.15" y2="113.05"></line> </g> <g> <line class="st1" x1="475.89" y1="137.35" x2="483.98" y2="129.21"></line> </g> <g> <line class="st16" x1="459.73" y1="121.19" x2="467.82" y2="113.05"></line> </g> <path class="st15" d="M459.73,121.19c8.93,0,16.16,7.24,16.16,16.16c0-8.93,7.24-16.16,16.16-16.16l0,0 c-8.93,0-16.16-7.24-16.16-16.16C475.89,113.96,468.65,121.19,459.73,121.19L459.73,121.19z"></path> <path class="st1" d="M500.15,113.05c-8.93,0-16.16-7.24-16.16-16.16"></path> </g> <g> <path class="st8" d="M75.12,180.92c0.01-0.8-0.01-1.61-0.1-2.43c-1.3-11.51-12.82-20.83-25.75-20.83c-9.8,0-17.57,5.37-20.2,12.97 c-2.44-1.05-5.13-1.66-7.91-1.66c-8.17,0-14.42,5.12-15.31,11.96l63.93,3.46L75.12,180.92z"></path> <path class="st17" d="M75.12,180.92c0.01-0.8-0.01-1.61-0.1-2.43c-1.3-11.51-12.82-20.83-25.75-20.83 c-9.8,0-17.57,5.37-20.2,12.97c-2.44-1.05-5.13-1.66-7.91-1.66c-8.17,0-14.42,5.12-15.31,11.96l63.93,3.46L75.12,180.92z"></path> <path class="st18" d="M69.77,184.38c0.1-0.8,0.17-1.61,0.17-2.43c0-11.51-10.48-20.83-23.4-20.83c-9.8,0-18.18,5.37-21.66,12.97 c-2.32-1.05-4.94-1.66-7.73-1.66c-8.17,0-14.99,5.12-16.66,11.96H69.77z"></path> <path class="st1" d="M69.77,184.38c0.1-0.8,0.17-1.61,0.17-2.43c0-11.51-10.48-20.83-23.4-20.83c-9.8,0-18.18,5.37-21.66,12.97 c-2.32-1.05-4.94-1.66-7.73-1.66c-8.17,0-14.99,5.12-16.66,11.96H69.77z"></path> </g> </g> <g> <path class="st2" d="M196.23,149.93"></path> <path class="st2" d="M253.65,136.85"></path> <path class="st2" d="M267.62,101.82"></path> <g> <g> <g> <g> <g> <path class="st8" d="M262.58,97.84h-51.4l0.08-51.15c-13.86,0-26.58,6.1-35.67,14.46l-17.36,17.58l0.24,0.38 c0,0,1.39,7.71,1.39,19.07c0,28.39,23.01,51.4,51.4,51.4c11.49,0,20.51,0.15,20.51,0.15l0,0l14.41-13.16 C256.07,126.36,262.58,112.47,262.58,97.84z"></path> <path class="st2" d="M146.36,99.9"></path> </g> </g> </g> <g> <path class="st8" d="M222.69,36.73l13.45-12.22c28.48,0,51.57,23.12,51.57,51.65l-12.86,12.98c0,0-0.35-23.99-15.8-37.54 C241.84,36.5,222.69,36.73,222.69,36.73z"></path> <path class="st2" d="M238.42,71.51"></path> <path class="st14" d="M274.41,88.68c0-13.6-5.28-25.97-13.91-35.16c-9.38-9.99-22.7-16.24-37.49-16.24l-0.22,51.4H274.41z"></path> <path class="st19" d="M274.41,88.68c0-28.39-23.02-51.77-51.41-51.77l-0.21,51.77H274.41z"></path> <g> <path class="st1" d="M223.45,77.79c3.68,0,3.68,5.35,7.36,5.35c3.68,0,3.68-5.35,7.36-5.35c3.68,0,3.68,5.35,7.36,5.35 c3.68,0,3.68-5.35,7.36-5.35c3.68,0,3.68,5.35,7.37,5.35c3.68,0,3.68-5.35,7.37-5.35c3.69,0,3.69,5.35,7.37,5.35"></path> <path class="st1" d="M223.45,45.38c3.68,0,3.68,5.35,7.36,5.35c3.68,0,3.68-5.35,7.36-5.35c3.68,0,3.68,5.35,7.36,5.35 c3.68,0,3.68-5.35,7.36-5.35"></path> <path class="st1" d="M223.45,61.59c3.68,0,3.68,5.35,7.36,5.35c3.68,0,3.68-5.35,7.36-5.35c3.68,0,3.68,5.35,7.36,5.35 c3.68,0,3.68-5.35,7.36-5.35c3.68,0,3.68,5.35,7.37,5.35c3.68,0,3.68-5.35,7.37-5.35"></path> </g> </g> </g> </g> <g> <defs> <path id="SVGID_3_" d="M262.58,97.84h-51.4l0.08-51.15c-13.86,0-26.58,6.1-35.67,14.46l-17.82,17.27l0.7,0.7 c0,0,1.39,7.71,1.39,19.07c0,28.39,23.01,51.4,51.4,51.4c11.49,0,20.51,0.15,20.51,0.15l0.71,0.69l13.7-13.85 C256.07,126.36,262.58,112.47,262.58,97.84z"></path> </defs> <clipPath id="SVGID_4_"> <use xlink:href="#SVGID_3_" style="overflow:visible;"></use> </clipPath> <g class="st20"> <polygon class="st21" points="198.83,114.2 196.14,114.2 211.11,97.97 213.8,97.97 "></polygon> <polygon class="st21" points="207.15,114.2 201.35,114.2 216.31,97.97 222.11,97.97 "></polygon> <polygon class="st21" points="244.85,128.82 239.05,128.82 262.21,104.4 268,104.4 "></polygon> <polygon class="st21" points="189.54,68.85 183.74,68.85 207.59,44.43 213.39,44.43 "></polygon> <polygon class="st21" points="192.31,73.51 190.41,72.94 214.26,48.52 216.16,49.09 "></polygon> <polygon class="st21" points="192.31,84.91 190.41,79.04 214.26,54.62 216.16,60.49 "></polygon> <polygon class="st21" points="246.72,114.2 231.53,114.2 246.5,97.97 261.68,97.97 "></polygon> </g> </g> <path class="st22" d="M262.58,97.84h-51.4l0.08-51.15c-13.86,0-26.58,6.1-35.67,14.46l-17.36,17.58l0.24,0.38 c0,0,1.39,7.71,1.39,19.07c0,28.39,23.01,51.4,51.4,51.4c11.49,0,20.51,0.15,20.51,0.15l0.42,0.33l13.99-13.49 C256.07,126.36,262.58,112.47,262.58,97.84z"></path> <g> <path class="st22" d="M262.58,97.84h-51.4l0.08-51.15c-13.86,0-26.58,6.1-35.67,14.46l-17.36,17.58l0.24,0.38 c0,0,1.39,7.71,1.39,19.07c0,28.39,23.01,51.4,51.4,51.4c11.49,0,20.51,0.15,20.51,0.15l0,0l14.41-13.16 C256.07,126.36,262.58,112.47,262.58,97.84z"></path> <path class="st2" d="M146.36,99.9"></path> </g> <g> <path class="st21" d="M144.72,113.4c0-28.39,23.01-51.4,51.4-51.4v51.4h51.4c0,28.39-23.01,51.4-51.4,51.4 S144.72,141.79,144.72,113.4z"></path> <path class="st19" d="M144.72,113.4c0-28.39,23.01-51.4,51.4-51.4v51.62l51.4-0.22c0,28.39-23.01,51.4-51.4,51.4 S144.72,141.79,144.72,113.4z"></path> <line class="st22" x1="195.66" y1="113.65" x2="225.11" y2="155.25"></line> <line class="st22" x1="196.11" y1="113.4" x2="161.52" y2="150.96"></line> </g> <g> <defs> <path id="SVGID_5_" d="M222.69,36.73l13.45-12.22c28.48,0,51.57,23.12,51.57,51.65l-13.13,12.53c0,0-0.22-21.41-14.89-35.8 C241.84,35.37,222.69,36.73,222.69,36.73z"></path> </defs> <clipPath id="SVGID_6_"> <use xlink:href="#SVGID_5_" style="overflow:visible;"></use> </clipPath> <g class="st23"> <polygon class="st14" points="228.54,38.58 220.86,39.27 237.41,23.73 245.09,23.04 "></polygon> <polygon class="st14" points="233.94,40.38 230.17,40.6 246.72,25.06 250.49,24.83 "></polygon> <polygon class="st14" points="270.96,70.53 267.2,70.75 283.74,55.21 287.51,54.99 "></polygon> <polygon class="st14" points="267.78,66.07 261.43,60.55 277.98,45.01 284.33,50.53 "></polygon> </g> </g> <path class="st19" d="M223,36.91l13.3-12.07c28.16,0,50.99,22.84,50.99,51.02l-12.71,12.82c0,0-0.35-23.7-15.62-37.09 C241.94,36.69,223,36.91,223,36.91z"></path> </g> <g> <polygon class="st8" points="194.35,296.76 176.52,314.39 97.61,245.4 115.68,227.52 194.35,227.52 "></polygon> <g> <defs> <polygon id="SVGID_7_" points="194.35,296.76 176.52,314.39 97.61,245.4 115.68,227.52 194.35,227.52 "></polygon> </defs> <clipPath id="SVGID_8_"> <use xlink:href="#SVGID_7_" style="overflow:visible;"></use> </clipPath> <g class="st24"> <polygon class="st25" points="174.03,247.9 165.36,247.9 187.94,225.59 196.42,225.73 "></polygon> </g> <g class="st24"> <polygon class="st25" points="196.78,237.3 196.96,253.27 174.75,275.96 175.31,259.13 "></polygon> <polygon class="st25" points="196.87,229.88 196.98,232.6 174.77,255.28 175.14,251.73 "></polygon> </g> </g> <polygon class="st22" points="194.35,296.76 176.52,314.39 97.61,245.4 115.68,227.52 194.35,227.52 "></polygon> <rect x="98" y="245.6" class="st25" width="78.22" height="68.42"></rect> <rect x="98" y="245.6" class="st1" width="78.22" height="68.42"></rect> <path class="st26" d="M133.85,292.41"></path> <path class="st8" d="M145.11,294.69l-4.17-15.34c2.08-1.19,3.48-3.43,3.48-5.99c0-3.82-3.1-6.91-6.91-6.91 c-3.82,0-6.91,3.1-6.91,6.91c0,2.78,1.64,5.16,4,6.26l-4.1,15.07H145.11z"></path> <line class="st27" x1="126.73" y1="227.94" x2="126.73" y2="234.19"></line> <line class="st27" x1="171.98" y1="227.94" x2="171.98" y2="234.19"></line> <path class="st28" d="M171.98,227.72v-6.45c0-13.49-10.14-24.42-22.66-24.42h0c-12.51,0-22.66,10.93-22.66,24.42v6.34"></path> </g> <g> <g> <line class="st29" x1="379.15" y1="94.23" x2="379.15" y2="82.41"></line> <path class="st29" d="M330.74,149.79l17.49-16.79l0,0c9.16-8.06,20.56-10.9,30.54-10.9c23.94,0,44.34,22.61,44.34,43.9 l-16.37,16.53"></path> <line class="st30" x1="379.15" y1="129.72" x2="379.15" y2="104.44"></line> <line class="st29" x1="379.15" y1="121" x2="379.15" y2="104.44"></line> <circle class="st29" cx="379.15" cy="102.6" r="3.63"></circle> <line class="st29" x1="385.93" y1="96.63" x2="390.73" y2="91.82"></line> <line class="st29" x1="372.51" y1="96.63" x2="367.71" y2="91.82"></line> </g> <g> <defs> <path id="SVGID_9_" d="M330.74,149.79l17.49-16.79l0,0c9.16-8.06,20.56-10.9,30.54-10.9c23.94,0,44.34,22.61,44.34,43.9 l-16.37,16.53"></path> </defs> <clipPath id="SVGID_10_"> <use xlink:href="#SVGID_9_" style="overflow:visible;"></use> </clipPath> <g class="st31"> <polygon class="st32" points="339.28,147.45 331.6,148.14 356.37,124.53 364.05,123.84 "></polygon> <polygon class="st32" points="350.97,142.95 347.2,143.17 371.39,120.59 375.16,120.37 "></polygon> <polygon class="st32" points="400.22,161.31 395.78,161.57 416.56,141.82 419.72,143.16 "></polygon> <polygon class="st32" points="396.47,156.11 388.99,149.66 408.49,131.51 415.97,137.95 "></polygon> </g> </g> <path class="st1" d="M330.74,149.79l17.49-16.79l0,0c9.16-8.06,20.56-10.9,30.54-10.9c23.94,0,44.34,22.61,44.34,43.9l-16.37,16.53 "></path> <path class="st33" d="M406.73,182.54c0-24.88-20.17-45.06-45.06-45.06s-45.06,20.17-45.06,45.06L406.73,182.54z"></path> <path class="st1" d="M406.73,182.54c0-24.88-20.17-45.06-45.06-45.06s-45.06,20.17-45.06,45.06L406.73,182.54z"></path> <path class="st34" d="M329.23,171.69c4.55-13.56,17.37-23.35,32.44-23.35c9.14,0,17.73,3.56,24.19,10.02"></path> <line class="st1" x1="361.67" y1="182.54" x2="380.2" y2="164.86"></line> <path class="st1" d="M329.23,171.69c4.55-13.56,17.37-23.35,32.44-23.35c9.14,0,17.73,3.56,24.19,10.02 c3.81,3.81,6.61,8.36,8.27,13.33"></path> </g> <g> </g> <g> </g> <g> </g> <g> </g> <g> </g> <g> </g> <g> </g> <g> </g> <g> </g> <g> </g> <g> </g> <g> </g> <g> </g> <g> </g> <g> </g> </svg> 