<?xml version="1.0" encoding="UTF-8"?> <svg xmlns="http://www.w3.org/2000/svg" xmlns:xlink="http://www.w3.org/1999/xlink" version="1.1" id="Layer_1" x="0px" y="0px" viewBox="0 0 527.95 422.72" style="enable-background:new 0 0 527.95 422.72;" xml:space="preserve"> <style type="text/css"> .st0{clip-path:url(#SVGID_2_);} .st1{fill:#ADA8CF;} .st2{fill:#FFFFFF;stroke:#232039;stroke-miterlimit:10;} .st3{fill:#FFD68F;} .st4{fill:#8079B4;stroke:#232039;stroke-linecap:round;stroke-linejoin:round;stroke-miterlimit:10;} .st5{fill:none;stroke:#232039;stroke-linecap:round;stroke-linejoin:round;stroke-miterlimit:10;} .st6{fill:#FFD1D1;stroke:#232039;stroke-linecap:round;stroke-linejoin:round;stroke-miterlimit:10;} .st7{fill:#289F8A;} .st8{fill:#232039;} .st9{clip-path:url(#SVGID_4_);} .st10{clip-path:url(#SVGID_4_);fill:#232039;} .st11{fill:#72D6C3;} .st12{fill:#FFB3B7;stroke:#232039;stroke-miterlimit:10;} .st13{fill:#8079B4;stroke:#232039;stroke-miterlimit:10;} .st14{fill:#FFD68F;stroke:#232039;stroke-miterlimit:10;} .st15{fill:#EB5C5D;stroke:#232039;stroke-miterlimit:10;} .st16{opacity:0.3;fill:#232039;} .st17{clip-path:url(#SVGID_6_);fill:#232039;} .st18{clip-path:url(#SVGID_8_);fill:#232039;} .st19{fill:#232039;stroke:#232039;stroke-linecap:round;stroke-linejoin:round;stroke-miterlimit:10;} .st20{fill:#FFB3B7;} .st21{fill:#EB5C5D;} .st22{fill:#FFB3B7;stroke:#232039;stroke-linejoin:round;stroke-miterlimit:10;} .st23{fill:#FFE5B9;} .st24{fill:#289F8A;stroke:#232039;stroke-miterlimit:10;} .st25{fill:#FFE5B9;stroke:#232039;stroke-linecap:round;stroke-linejoin:round;stroke-miterlimit:10;} .st26{fill:none;stroke:#232039;stroke-width:0.8126;stroke-linecap:round;stroke-linejoin:round;stroke-miterlimit:10;} .st27{fill:#FFFFFF;} </style> <g> <defs> <path id="SVGID_1_" d="M262.19,0.5C131.62,0.5,25.76,106.35,25.76,236.93v149.12h472.86V236.93 C498.62,106.35,392.77,0.5,262.19,0.5z"></path> </defs> <clipPath id="SVGID_2_"> <use xlink:href="#SVGID_1_" style="overflow:visible;"></use> </clipPath> <g class="st0"> <path class="st1" d="M262.19,0.5C131.62,0.5,25.76,106.35,25.76,236.93v149.12h472.86V236.93C498.62,106.35,392.77,0.5,262.19,0.5 z"></path> <g> <path class="st2" d="M248.44,399.7c0.79-3.44,1.22-7.01,1.22-10.69c0-26.38-21.39-47.77-47.77-47.77 c-18.09,0-33.84,10.06-41.94,24.9c-6.68-5.18-15.05-8.27-24.16-8.27c-14.38,0-26.96,7.7-33.86,19.2 c-4.17-2.04-8.85-3.18-13.8-3.18c-15.45,0-28.28,11.14-30.93,25.82H248.44z"></path> <path class="st2" d="M448.9,91.03c0.61-2.66,0.94-5.43,0.94-8.27c0-20.42-16.55-36.98-36.98-36.98 c-14.01,0-26.19,7.79-32.47,19.27c-5.17-4.01-11.65-6.4-18.7-6.4c-11.13,0-20.87,5.96-26.21,14.86 c-3.22-1.58-6.85-2.46-10.68-2.46c-11.96,0-21.89,8.62-23.95,19.99H448.9z"></path> <g> <g> <path class="st3" d="M386.77,129.44"></path> <path class="st3" d="M380.11,130.88"></path> <path class="st4" d="M380.11,130.88l-8.1,8.14h0c6.58,0,12.24-3.94,14.76-9.58C384.74,130.36,382.49,130.88,380.11,130.88 L380.11,130.88z"></path> </g> <g> <path class="st3" d="M397.67,140.46"></path> <path class="st4" d="M388.17,155.18l8.1-8.14c0-2.34,0.5-4.57,1.4-6.58C392.07,143,388.17,148.63,388.17,155.18z"></path> <path class="st3" d="M396.27,147.04"></path> </g> <path class="st5" d="M396.27,147.04c0-8.93,7.24-16.16,16.16-16.16l0,0"></path> <path class="st5" d="M396.27,114.72c0,8.93-7.24,16.16-16.16,16.16l0,0"></path> <path class="st4" d="M388.17,122.86c0,8.93,7.24,16.16,16.16,16.16l0,0l0,0l8.1-8.14l0,0l0,0c-8.93,0-16.16-7.24-16.16-16.16 L388.17,122.86"></path> <g> <line class="st5" x1="388.17" y1="122.86" x2="396.27" y2="114.72"></line> </g> <g> <line class="st5" x1="404.34" y1="139.02" x2="412.43" y2="130.88"></line> </g> <g> <line class="st5" x1="388.17" y1="155.18" x2="396.27" y2="147.04"></line> </g> <g> <line class="st6" x1="372.01" y1="139.02" x2="380.11" y2="130.88"></line> </g> <path class="st4" d="M372.01,139.02c8.93,0,16.16,7.24,16.16,16.16c0-8.93,7.24-16.16,16.16-16.16l0,0 c-8.93,0-16.16-7.24-16.16-16.16C388.17,131.78,380.94,139.02,372.01,139.02L372.01,139.02z"></path> <path class="st5" d="M412.43,130.88c-8.93,0-16.16-7.24-16.16-16.16"></path> </g> <g> <path class="st5" d="M229.86,114.38"></path> <g> <path class="st7" d="M212.26,135.03l128.67,0c0,0,3.44,0.5,4.83,2.05c1.41,1.57,2.05,4.34,2.05,4.34l0,93.67l-0.73,1.5 c0,0-7.26,8.05-8.56,8.05l-127.96-1.43c-2.72,0-4.93-2.21-4.93-4.93l-1.65-98.02l2.19-2.19 C208.8,135.44,208.53,135.03,212.26,135.03z"></path> <polygon class="st8" points="348.05,146.14 343.02,151.38 342.78,145.51 347.62,140.64 "></polygon> <polygon class="st8" points="339.51,140.49 335.75,140.13 340.75,135.24 344.34,135.7 "></polygon> <path class="st5" d="M212.26,135.03l128.79,0.24c3.74,0,6.75,2.41,6.75,6.75l0.24,91.43c0,1.44-0.57,3.23-1.59,4.25l-6.01,5.76 l-129.88-0.26c-2.73,0-4.94-2.21-4.94-4.94l-1.65-98.01l3.45-3.45C209.26,134.99,209.67,135.03,212.26,135.03z"></path> <g> <defs> <path id="SVGID_3_" d="M212.26,135.03l131.44,0.48c0,0,1.96-0.17,3.35,1.38c1.41,1.57,1.15,3.93,1.15,3.93l0,94.08 l-1.45,2.33c0,0-6.94,7.4-8.24,7.4l-127.96-1.43c-2.72,0-4.93-2.21-4.93-4.93l-1.65-98.02l2.19-2.19 C208.8,135.44,208.53,135.03,212.26,135.03z"></path> </defs> <clipPath id="SVGID_4_"> <use xlink:href="#SVGID_3_" style="overflow:visible;"></use> </clipPath> <g class="st9"> <polygon class="st8" points="280.24,133.97 253.1,161.12 301.49,160.72 328.25,133.96 "></polygon> <polygon class="st8" points="252.14,133.97 224.99,161.12 247.73,160.72 274.48,133.96 "></polygon> <polygon class="st8" points="244.66,133.97 217.51,161.12 219.37,160.72 246.13,133.96 "></polygon> <polygon class="st8" points="335.98,134.29 328.98,141.47 330.84,141.07 337.45,134.28 "></polygon> <polygon class="st8" points="332.31,133.97 324.07,142.19 325.93,141.79 333.78,133.96 "></polygon> </g> <polygon class="st10" points="349.05,158.67 342.5,165.28 342.54,161.18 349.05,154.62 "></polygon> <polygon class="st10" points="349.05,241.34 341.37,245.36 342.54,168.9 349.05,162.34 "></polygon> </g> <g> <path class="st11" d="M336.95,244.65l-126.39-1.43c-2.56,0-4.93-3.24-4.93-5.8l-1.65-97.15l132.81,0 c3.29,0,5.96,2.67,5.96,5.96l0,92.62C342.86,242.74,339.51,244.65,336.95,244.65z"></path> <path class="st5" d="M336.95,244.65l-125.52-1.43c-3.2,0-5.8-2.6-5.8-5.8l-1.65-97.15l132.87,0c3.26,0,5.9,2.64,5.9,5.9 l0,92.68C342.75,242.05,340.15,244.65,336.95,244.65z"></path> </g> </g> <g> <path class="st12" d="M276.82,148.12c0,0,23.64-61.14-94.36-117.35c-30.11-14.34,26.66-105.84-41.43-175.2L95.15-116 L31.44,7.66c0,0,61.05-6.39,70.25,50.18c14.07,86.52,151.51-1,163.55,88.8"></path> <g> <path class="st13" d="M286.19,149.33c0,0,25.72-60.29-39.59-117.43c-30.19-26.41,7.77-73.45-1.82-120.14l-38.54-86.61 L66.58-77.28c84.75,4.73,39.44,91.9,81.46,139.89c32.2,36.76,120.26-2.68,128.78,85.51"></path> </g> <g> <path class="st14" d="M290.93,149.84c0,0,27.95-61.64-1.58-110.73c-58.88-97.85,67.53-185.18-33.21-221l-143.78,59.77 c76.99,74.21,19.87,118.25,71.61,160.36c28.21,22.96,117.57,14.72,100.47,110.76"></path> </g> <g> <path class="st15" d="M290.93,149.84c0,0,32.88-29.17,14.61-85.33C271.98-38.63,349.95-63.19,406.59-63.96l-76.03-51.98 l-93.6-12.96C203.31-104.53,189.4-9.86,242.8,20.77c34.42,19.75,79.13,61.56,45.31,128.66"></path> </g> </g> <polygon class="st16" points="298.44,142 264.34,140.91 265.23,146.64 290.93,149.84 "></polygon> <path class="st5" d="M203.98,140.27l122.96,14.2c2.88,0.33,5.06,2.76,5.07,5.66l0.39,99.77"></path> <path class="st7" d="M203.98,140.27l122.96,14.2c2.88,0.33,5.06,2.76,5.07,5.66l0.39,99.77c0,1.68-0.99,3.01-2.24,3.99l0,0 l-2.05,1.25l-2.83,2.57c0.75-0.81,1.76-2.62,1.76-3.81l-0.34-98.16c-0.04-3.72-2.13-5.65-5.42-6.1L199.62,144.8l-1.3,1.89 c0.41-0.87,1.73-2.56,2.75-3.7L203.98,140.27"></path> <g> <defs> <path id="SVGID_5_" d="M203.98,140.27l122.96,14.2c2.88,0.33,5.06,2.76,5.07,5.66l0.39,99.77c0,1.68-0.99,3.01-2.24,3.99l0,0 l-4.88,3.82c0.75-0.81,1.78-2.89,1.78-4.08l-1.61-96.43c-0.01-2.89-2.18-5.31-5.05-5.64L199.62,144.8c0,0,0.43-0.67,1.45-1.81 L203.98,140.27"></path> </defs> <clipPath id="SVGID_6_"> <use xlink:href="#SVGID_5_" style="overflow:visible;"></use> </clipPath> <polygon class="st17" points="320.39,162.68 316.28,161.96 343.65,133.79 347.51,135.48 "></polygon> <polygon class="st17" points="349.05,161.77 322.52,188.3 322.56,184.57 349.05,158.08 "></polygon> <polygon class="st17" points="332.93,262.15 324,268.85 326.74,188.27 333.81,181.19 "></polygon> <polygon class="st17" points="346.4,151.92 319.26,179.06 318.28,171.6 345.04,144.84 "></polygon> <polygon class="st17" points="280.24,133.97 253.1,161.12 301.49,160.72 328.25,133.96 "></polygon> <polygon class="st17" points="252.14,133.97 224.99,161.12 247.73,160.72 274.48,133.96 "></polygon> <polygon class="st17" points="244.66,133.97 217.51,161.12 219.37,160.72 246.13,133.96 "></polygon> <polygon class="st17" points="338.49,133.87 311.34,161.02 313.2,160.62 339.96,133.86 "></polygon> <polygon class="st17" points="333.44,133.97 306.29,161.12 308.15,160.72 334.91,133.96 "></polygon> </g> <path class="st7" d="M199.3,144.8l121.98,14.82c2.87,0.33,5.04,2.75,5.05,5.64l0.72,98.52c0,2.52-3.13,5.39-5.86,5.07 l-116.63-21.26c-3.6-0.62-4.56-2.04-4.56-4.56l-1.48-94.18C198.56,147.13,198.67,146.07,199.3,144.8z"></path> <path class="st5" d="M203.98,140.27l122.96,14.2c2.88,0.33,5.06,2.76,5.07,5.66l0.39,99.77c0,1.68-0.99,3.01-2.24,3.99l0,0 l-4.88,3.82c0,0,1.63-0.61,1.76-3.81l-0.34-98.16c0-3.56-2.23-5.77-5.1-6.1L199.62,144.8c0.3-0.66,1.27-1.87,2.11-2.59 L203.98,140.27"></path> <path class="st5" d="M199.62,144.8l121.98,14.82c2.87,0.33,5.04,2.75,5.05,5.64l0.33,99.28c-0.18,2.65-2.85,4.66-5.79,4.3 l-116.31-21.26c-3.6-0.62-4.56-2.04-4.56-4.56l-1.48-94.18C198.88,147.13,198.99,146.07,199.62,144.8z"></path> <path class="st5" d="M199.44,160.36l106.59,14.49c2.08,0.24,3.66,2,3.66,4.09l0.08,69.68c0,1.83-1.48,3.31-3.31,3.31 L200.88,233.7"></path> <path class="st7" d="M342.66,230.09l-17.92-2.41V202.9l17.92,2.41c2.51,0,4.55,2.04,4.55,4.55v15.69 C347.2,228.05,345.17,230.09,342.66,230.09z"></path> <path class="st5" d="M326.74,203.06l15.92,2.25c2.51,0,4.55,2.04,4.55,4.55v15.69c0,2.51-2.04,4.55-4.55,4.55l-15.76-2.03"></path> <ellipse class="st8" cx="335.58" cy="217.38" rx="3.2" ry="4.71"></ellipse> <path class="st7" d="M326.74,203.06l16.16,2.33c2.64,0.44,4.55,2.04,4.55,4.55v15.69c0,1.32-0.5,2.23-1.39,3.06l0,0l5.17-4.6 l0.72-0.7c0.84-0.87,0.84-1.63,0.84-2.74l-0.24-15.25c0-2.51-0.6-4.38-3.42-4.87l-16.4-2.05L326.74,203.06z"></path> <path class="st5" d="M326.74,203.06l16.16,2.33c2.64,0.44,4.55,2.04,4.55,4.55v15.69c0,1.32-0.23,1.78-1.12,2.61l0,0l5.68-5.13 c0.66-0.79,0.79-1.35,0.79-2.46l-0.16-13.07c0.08-3.18-0.12-6.07-4.1-6.84l-15.8-2.25L326.74,203.06z"></path> <g> <defs> <path id="SVGID_7_" d="M326.74,203.06l16.16,2.33c2.64,0.44,4.55,2.04,4.55,4.55v15.69c0,1.32-0.5,2.23-1.39,3.06l0,0l4.8-4.3 l1.39-1.57c0.66-0.79,0.6-0.76,0.6-1.87l-0.34-15.23c0.04-3.06-0.84-4.91-4.22-5.23l-15.56-2.01L326.74,203.06z"></path> </defs> <clipPath id="SVGID_8_"> <use xlink:href="#SVGID_7_" style="overflow:visible;"></use> </clipPath> <polygon class="st18" points="343.46,207.72 335.9,208.33 347.76,196.65 354.32,196.97 "></polygon> <polygon class="st18" points="346.06,228.68 347.32,216.09 353.59,210.1 354.35,220.54 "></polygon> <polygon class="st18" points="358.34,201.66 345.07,214.32 345.11,210.59 358.34,197.97 "></polygon> <polygon class="st18" points="344.9,194.54 333.13,206.39 335.34,206.27 346.78,194.72 "></polygon> <polygon class="st18" points="334.13,193.89 321.65,206.75 330.53,207.53 342.17,195.81 "></polygon> </g> </g> </g> <g> <rect x="90.03" y="242.8" class="st19" width="59.26" height="60.76"></rect> <polygon class="st19" points="89.76,242.84 67.82,264.79 67.82,325.5 89.76,303.55 "></polygon> <rect x="68.08" y="264.79" class="st20" width="59.26" height="60.71"></rect> <rect x="68.08" y="264.79" class="st21" width="59.26" height="8.83"></rect> <polygon class="st19" points="149.28,243.96 127.34,265.9 127.34,325.5 149.28,303.55 "></polygon> <g> <polygon class="st20" points="149.18,285.43 149.54,294.68 127.48,316.36 127.54,306.26 "></polygon> <polygon class="st20" points="149.51,276.72 149.63,280.44 127.49,301.9 127.85,297.36 "></polygon> </g> <polygon class="st5" points="149.28,242.84 127.34,264.79 127.34,325.5 149.28,303.55 "></polygon> <line class="st6" x1="97.71" y1="264.79" x2="97.71" y2="325.5"></line> <g> <path class="st5" d="M-188.41,68.15"></path> </g> <rect x="68.08" y="264.79" class="st5" width="59.26" height="60.71"></rect> <g> <polygon class="st19" points="152.04,232.28 130.41,253.72 130.41,264.69 152.04,243.25 "></polygon> <polygon class="st22" points="152.04,232.01 84.61,232.01 62.98,253.72 130.41,253.72 "></polygon> <rect x="62.98" y="253.72" class="st22" width="67.43" height="10.97"></rect> <line class="st6" x1="93.86" y1="253.72" x2="93.86" y2="264.69"></line> <line class="st6" x1="75.51" y1="241.48" x2="142.06" y2="241.48"></line> <line class="st6" x1="115.02" y1="232.17" x2="93.86" y2="253.72"></line> <circle class="st5" cx="100.96" cy="234.08" r="9.17"></circle> <circle class="st5" cx="111.15" cy="234.08" r="9.17"></circle> </g> </g> </g> </g> <path class="st5" d="M262.19,0.5C131.62,0.5,25.76,106.35,25.76,236.93v149.12h472.86V236.93C498.62,106.35,392.77,0.5,262.19,0.5z"></path> <g> <g> <g> <g> <rect x="352.32" y="341.07" class="st14" width="97.84" height="55.84"></rect> <polygon class="st3" points="352.32,341.07 327,366.38 327,422.22 352.32,396.91 "></polygon> </g> <g> <polygon class="st5" points="352.32,341.07 327.43,366.38 327.43,422.22 352.32,396.91 "></polygon> <polygon class="st19" points="450.45,341.07 425.14,366.38 425.14,422.22 450.45,396.91 "></polygon> </g> <rect x="327.43" y="366.22" class="st23" width="97.41" height="56"></rect> <rect x="327.43" y="366.52" class="st3" width="97.41" height="10.19"></rect> <line class="st6" x1="375.93" y1="367.12" x2="375.93" y2="422.22"></line> <g> <polygon class="st23" points="449.87,378.51 449.83,388.13 424.63,412.78 424.89,403.32 "></polygon> <polygon class="st23" points="449.83,370.64 449.96,373.96 424.64,398.72 425.07,394.44 "></polygon> </g> <polygon class="st5" points="450.15,341.07 424.84,366.38 424.84,422.22 450.15,396.91 "></polygon> <rect x="327.43" y="366.22" class="st5" width="97.41" height="56"></rect> </g> <g> <g> <g> <g> <polygon class="st24" points="358.32,350.93 362.87,364.12 368.54,361.96 363.98,348.77 "></polygon> </g> <g> <polygon class="st15" points="332.2,360.43 345.94,362.88 346.82,356.89 333.08,354.44 "></polygon> </g> <g> <polygon class="st14" points="342.05,343.73 353.88,351.15 356.94,345.92 345.12,338.5 "></polygon> </g> <g> <polygon class="st15" points="387.4,348.22 373.46,347.45 373.32,353.51 387.25,354.27 "></polygon> </g> <g> <polygon class="st13" points="364.98,347.12 375.24,337.66 371.01,333.33 360.74,342.79 "></polygon> </g> </g> </g> </g> <g> <g> <g> <g> <polygon class="st14" points="394.63,350.88 406.73,343.93 403.56,338.77 391.46,345.72 "></polygon> </g> <g> <polygon class="st14" points="434.76,367.11 438.89,353.78 433.05,352.16 428.92,365.49 "></polygon> </g> <g> <polygon class="st24" points="427.36,332.91 421.32,345.49 426.85,347.94 432.89,335.36 "></polygon> </g> <g> <polygon class="st15" points="397.65,365.11 406.68,354.47 401.95,350.69 392.92,361.33 "></polygon> </g> <g> <polygon class="st15" points="443.59,337.86 457.11,334.4 455.43,328.59 441.91,332.04 "></polygon> </g> <g> <polygon class="st13" points="410.61,352.68 415.6,365.72 421.19,363.38 416.2,350.35 "></polygon> </g> <g> <polygon class="st13" points="443.64,347.47 453.74,357.1 457.79,352.59 447.68,342.96 "></polygon> </g> </g> </g> </g> <g> <polygon class="st19" points="451.42,288.43 430.4,317.97 432.42,330.47 453.44,300.92 "></polygon> <polygon class="st25" points="451.42,288.43 345.95,305.47 324.93,335.02 430.4,317.97 "></polygon> <rect x="325.26" y="326.41" transform="matrix(0.9872 -0.1596 0.1596 0.9872 -48.2392 64.6816)" class="st25" width="106.84" height="12.66"></rect> <line class="st6" x1="374.23" y1="327.05" x2="376.25" y2="339.55"></line> <line class="st6" x1="336.95" y1="318.77" x2="441.42" y2="301.89"></line> <line class="st6" x1="395.25" y1="297.51" x2="374.23" y2="327.05"></line> <circle class="st5" cx="377.38" cy="303.59" r="10.57"></circle> <circle class="st5" cx="388.99" cy="301.72" r="10.57"></circle> </g> </g> <g> <path class="st8" d="M75.12,164.31c0.01-0.8-0.01-1.61-0.1-2.43c-1.3-11.51-12.82-20.83-25.75-20.83c-9.8,0-17.57,5.37-20.2,12.97 c-2.44-1.05-5.13-1.66-7.91-1.66c-8.17,0-14.42,5.12-15.31,11.96l63.93,3.46L75.12,164.31z"></path> <path class="st26" d="M75.12,164.31c0.01-0.8-0.01-1.61-0.1-2.43c-1.3-11.51-12.82-20.83-25.75-20.83 c-9.8,0-17.57,5.37-20.2,12.97c-2.44-1.05-5.13-1.66-7.91-1.66c-8.17,0-14.42,5.12-15.31,11.96l63.93,3.46L75.12,164.31z"></path> <path class="st27" d="M69.77,167.77c0.1-0.8,0.17-1.61,0.17-2.43c0-11.51-10.48-20.83-23.4-20.83c-9.8,0-18.18,5.37-21.66,12.97 c-2.32-1.05-4.94-1.66-7.73-1.66c-8.17,0-14.99,5.12-16.66,11.96H69.77z"></path> <path class="st5" d="M69.77,167.77c0.1-0.8,0.17-1.61,0.17-2.43c0-11.51-10.48-20.83-23.4-20.83c-9.8,0-18.18,5.37-21.66,12.97 c-2.32-1.05-4.94-1.66-7.73-1.66c-8.17,0-14.99,5.12-16.66,11.96H69.77z"></path> </g> <g> <path class="st8" d="M527.54,244.65c0.01-0.8-0.01-1.61-0.1-2.43c-1.3-11.51-12.82-20.83-25.75-20.83 c-9.8,0-17.57,5.37-20.2,12.97c-2.44-1.05-5.13-1.66-7.91-1.66c-8.17,0-14.42,5.12-15.31,11.96l63.93,3.46L527.54,244.65z"></path> <path class="st26" d="M527.54,244.65c0.01-0.8-0.01-1.61-0.1-2.43c-1.3-11.51-12.82-20.83-25.75-20.83 c-9.8,0-17.57,5.37-20.2,12.97c-2.44-1.05-5.13-1.66-7.91-1.66c-8.17,0-14.42,5.12-15.31,11.96l63.93,3.46L527.54,244.65z"></path> <path class="st2" d="M522.2,248.1c0.1-0.8,0.17-1.61,0.17-2.43c0-11.51-10.48-20.83-23.4-20.83c-9.8,0-18.18,5.37-21.66,12.97 c-2.32-1.05-4.94-1.66-7.73-1.66c-8.17,0-14.99,5.12-16.66,11.96H522.2z"></path> <path class="st26" d="M522.2,248.1c0.1-0.8,0.17-1.61,0.17-2.43c0-11.51-10.48-20.83-23.4-20.83c-9.8,0-18.18,5.37-21.66,12.97 c-2.32-1.05-4.94-1.66-7.73-1.66c-8.17,0-14.99,5.12-16.66,11.96H522.2z"></path> </g> </g> <g> </g> <g> </g> <g> </g> <g> </g> <g> </g> <g> </g> <g> </g> <g> </g> <g> </g> <g> </g> <g> </g> <g> </g> <g> </g> <g> </g> <g> </g> </svg> 