<?xml version="1.0" encoding="UTF-8"?> <svg xmlns="http://www.w3.org/2000/svg" id="Layer_2" viewBox="0 0 597.86 60.34"><defs><style>.cls-1{fill:none;stroke:#242039;stroke-miterlimit:10;stroke-width:.77px;}.cls-2{fill:#242039;}.cls-3,.cls-4{fill:#383454;}.cls-4,.cls-5,.cls-6,.cls-7{fill-rule:evenodd;}.cls-5{fill:#eb5d5e;}.cls-6{fill:#fff;}.cls-7{fill:#ffd68f;}</style></defs><g id="Layer_1-2"><path class="cls-2" d="m494.32,12.46c.04-.4.07-.81.07-1.2,0-3-1.17-5.77-3.28-7.79-2.04-1.95-4.67-2.98-7.6-2.98h-22.01c-2.9,0-5.54,1.05-7.61,3.04-2.14,2.06-3.32,4.85-3.32,7.88v22.11c-.86-.22-1.76-.33-2.66-.33h-9.23V11.4c0-2.95-1.14-5.7-3.22-7.76-2.05-2.04-4.79-3.16-7.72-3.16s-5.61,1.12-7.67,3.16c-1.68,1.67-2.75,3.8-3.09,6.12-1.96-2.31-4.31-4.25-7.03-5.79-4.12-2.32-8.8-3.5-13.91-3.5h-8.81c-2.9,0-5.53,1.05-7.62,3.04-1.71,1.64-2.8,3.76-3.18,6.08-2.03-2.44-4.49-4.48-7.35-6.08-4.19-2.34-8.94-3.53-14.1-3.53s-9.96,1.19-14.15,3.53c-3.7,2.07-6.73,4.87-9.02,8.35-2.31-3.48-5.34-6.28-9.04-8.35-4.19-2.34-8.94-3.53-14.1-3.53s-9.96,1.19-14.15,3.53c-3.73,2.08-6.77,4.91-9.07,8.43-2.23-3.3-5.15-5.98-8.69-7.98-4.12-2.32-8.8-3.5-13.91-3.5h-8.82c-2.91,0-5.54,1.05-7.62,3.04-.81.78-1.48,1.66-2,2.63-1.31-1.26-2.81-2.33-4.47-3.21-3.11-1.63-6.59-2.46-10.35-2.46h-8.77c-2.73,0-5.21.93-7.23,2.69-1.99-1.76-4.5-2.69-7.28-2.69h-22.01c-2.68,0-5.14.9-7.13,2.61-1.89-1.69-4.36-2.61-7.04-2.61-1.63,0-3.18.34-4.61,1.01-1.2.56-2.31,1.36-3.4,2.44l-2.84,2.81c-.54-1.15-1.28-2.2-2.19-3.11-2.05-2.04-4.79-3.16-7.71-3.16s-5.5,1.06-7.59,3.06c-.62.6-1.17,1.27-1.64,1.99-2.39-1.82-4.84-3.2-7.31-4.08-2.71-.97-5.81-1.46-9.23-1.46-5,0-9.65,1.27-13.84,3.78-2.74,1.64-5.11,3.69-7.08,6.11-.32-2.39-1.39-4.57-3.09-6.27-2.04-2.02-4.79-3.14-7.74-3.14s-5.54,1.05-7.61,3.04c-.36.34-.69.71-1,1.1-.28-.35-.57-.69-.89-1.01-2.04-2.02-4.77-3.13-7.69-3.13s-5.54,1.05-7.61,3.04c-2.14,2.06-3.32,4.85-3.32,7.88v1.43l-6.22-8.21-.03-.04-.03-.04-.22-.27c-.97-1.1-2.14-1.99-3.48-2.66-1.53-.75-3.14-1.13-4.79-1.13-2.92,0-5.65,1.11-7.69,3.14-.85.84-1.55,1.82-2.07,2.9-1.38-1.42-2.92-2.64-4.59-3.62C31.35,1.01,27.55.05,23.25.05c-3.58,0-6.93.58-9.94,1.74-3.48,1.33-6.33,3.37-8.45,6.06-2.38,3.01-3.59,6.56-3.59,10.56,0,.37.01.76.04,1.19-.03.43-.04.83-.04,1.22,0,.37.01.76.04,1.19-.03.43-.04.83-.04,1.22,0,2.84.61,5.5,1.81,7.91-.06.06-.11.11-.17.17-1.87,1.93-2.9,4.47-2.9,7.13,0,.39.03.79.07,1.19-.05.41-.07.82-.07,1.22s.03.79.07,1.19c-.05.41-.07.82-.07,1.22,0,1.41.3,2.8.91,4.26,1.73,4.06,4.76,7.3,9.02,9.64,3.82,2.1,8.07,3.16,12.64,3.16,3.45,0,6.75-.61,9.81-1.81,2.67-1.04,4.98-2.53,6.9-4.44.5.97,1.16,1.85,1.95,2.63,2.03,2.02,4.77,3.14,7.69,3.14s5.79-1.16,7.84-3.26c1.99-2.05,3.09-4.77,3.09-7.66v-1.38l6.03,7.96c1.16,1.62,2.71,2.82,4.62,3.56,1.35.52,2.74.79,4.14.79,2.92,0,5.65-1.11,7.69-3.14.32-.32.62-.66.9-1.02.27.35.57.68.88.99,2.05,2.04,4.79,3.16,7.72,3.16s5.79-1.16,7.84-3.26c1.63-1.68,2.67-3.8,2.99-6.11,1.99,2.44,4.37,4.49,7.12,6.12,4.17,2.48,8.82,3.74,13.81,3.74,6.12,0,11.68-1.86,16.54-5.54.46.73,1.01,1.4,1.64,2,2.09,2,4.71,3.06,7.59,3.06s5.66-1.12,7.71-3.16c1-.99,1.79-2.15,2.33-3.42l1.46,1.96c2.06,2.93,5.32,4.61,8.95,4.61,2.71,0,5.2-.98,7.14-2.8,2.01,1.81,4.59,2.8,7.33,2.8h22.01c2.79,0,5.3-.93,7.3-2.7,1.99,1.74,4.53,2.7,7.22,2.7,3.01,0,5.79-1.16,7.84-3.27.93-.96,1.67-2.07,2.19-3.27l.92,1.46c2.08,3.23,5.45,5.07,9.26,5.07,2.42,0,4.69-.74,6.54-2.1,1.86,1.36,4.11,2.1,6.47,2.1h8.82c5.11,0,9.79-1.18,13.91-3.5,3.54-2,6.46-4.68,8.69-8,2.3,3.53,5.34,6.36,9.07,8.45,4.19,2.34,8.95,3.53,14.15,3.53s9.97-1.19,14.15-3.54c3.68-2.07,6.7-4.87,9-8.36,2.29,3.49,5.32,6.3,9.02,8.37,4.19,2.34,8.95,3.53,14.15,3.53s9.97-1.19,14.15-3.54c2.84-1.6,5.28-3.63,7.31-6.07.37,2.26,1.43,4.34,3.08,5.97,2.06,2.04,4.8,3.16,7.71,3.16h8.81c5.11,0,9.79-1.18,13.91-3.5,2.72-1.53,5.07-3.47,7.03-5.79.33,2.27,1.36,4.37,2.97,6.02,2.05,2.11,4.82,3.27,7.79,3.27h20.16c2.5,0,4.87-.83,6.79-2.34,1.92,1.52,4.29,2.34,6.79,2.34h22.01c2.93,0,5.56-1.03,7.6-2.98,2.12-2.03,3.28-4.79,3.28-7.79,0-.39-.02-.79-.07-1.2.04-.41.07-.82.07-1.22s-.02-.79-.07-1.2c.04-.41.07-.82.07-1.22,0-3.03-1.21-5.81-3.4-7.83-.72-.66-1.51-1.21-2.36-1.65.17-.76.25-1.55.25-2.36,0-.4-.02-.8-.07-1.21.05-.4.07-.81.07-1.21s-.02-.8-.07-1.21c.05-.4.07-.81.07-1.21,0-.7-.06-1.38-.19-2.05.83-.43,1.6-.97,2.3-1.61,2.19-2.02,3.4-4.8,3.4-7.83,0-.4-.02-.81-.07-1.22.04-.4.07-.81.07-1.2s-.02-.81-.07-1.22ZM2.09,39.64h0c-.06-.4-.09-.8-.09-1.19,0,.39.03.78.09,1.19Zm1.17-18.82s0-.03,0-.05c0,.01,0,.03,0,.05h0Zm.07,13.15c.29-.44.63-.86,1-1.25h0c-.38.39-.71.81-1,1.25Zm3.09-24.88c-.26.33-.51.67-.74,1.02.23-.35.48-.68.74-1.02.24-.3.49-.59.74-.87-.26.28-.51.57-.74.87ZM23.25,2.05h0c-.83,0-1.65.03-2.46.1.8-.07,1.62-.1,2.46-.1Zm-.68,56.29h0c1.6,0,3.16-.14,4.68-.42-1.52.28-3.08.42-4.68.42ZM42.64,5.04c.1-.1.21-.18.31-.28-.1.09-.21.18-.31.28-.38.38-.73.79-1.03,1.23.3-.44.64-.85,1.03-1.23Zm0,50.26c-.18-.18-.35-.36-.51-.56.16.19.33.38.51.56.21.21.42.4.65.58-.22-.18-.44-.38-.65-.58ZM54.37,4.37c.47.36.91.76,1.29,1.2-.39-.44-.82-.84-1.29-1.2Zm3.48,44.57c0,.44-.03.88-.09,1.31.06-.43.09-.87.09-1.31v-7.33h0v7.33Zm16.78,8.92c-.29,0-.58-.01-.86-.04.29.03.57.04.86.04h0Zm8.57-6.57c-.22.86-.57,1.67-1.02,2.41.46-.74.8-1.56,1.02-2.41.1.38.23.74.37,1.1-.15-.36-.27-.72-.37-1.1Zm2.31,3.99c-.25-.25-.47-.51-.69-.78.21.27.44.53.69.78.42.42.87.79,1.36,1.11-.48-.32-.94-.69-1.36-1.11Zm11.36,1.06c.47-.32.91-.69,1.31-1.1-.4.41-.84.78-1.31,1.1Zm1.36-1.14h0s.04-.05.07-.08c-.02.02-.04.05-.07.08Zm2.53-11.53h0c.19.41.4.82.61,1.22-.21-.41-.42-.81-.61-1.22Zm0-26.97h0c.29-.62.59-1.24.93-1.84-.34.6-.64,1.22-.93,1.84Zm10.03,38.19c-1.92-1.14-3.65-2.5-5.17-4.07,1.52,1.57,3.25,2.93,5.17,4.07.48.29.97.56,1.47.81-.5-.25-.99-.52-1.47-.81ZM123.58,2c-2.17,0-4.27.26-6.29.77-1.21.31-2.39.71-3.54,1.2,1.15-.49,2.33-.89,3.54-1.2,2.02-.51,4.12-.77,6.29-.77,1.79,0,3.49.14,5.07.43-1.58-.28-3.28-.43-5.07-.43Zm6.41,55.55c1.37-.35,2.7-.82,3.98-1.4-1.29.58-2.62,1.05-3.98,1.4Zm9.49-4.79c-1.16.92-2.36,1.74-3.6,2.43,1.25-.7,2.45-1.51,3.6-2.43l.15-.12-.15.12Zm-.06-45.23c-1.34-1.07-2.7-1.98-4.07-2.73,1.37.75,2.73,1.66,4.07,2.73.14.1.26.22.39.33-.13-.11-.25-.23-.39-.33Zm1.37,1.3h0c.11-.36.24-.72.39-1.06-.15.34-.28.7-.39,1.06Zm2.35,46.53c-.29-.27-.55-.56-.79-.87.24.3.51.59.79.87.43.41.88.77,1.36,1.08-.48-.31-.93-.67-1.36-1.08Zm12.51-.07c-.31.31-.65.6-1,.86.35-.26.69-.54,1-.86.42-.42.8-.88,1.13-1.36-.33.49-.7.94-1.12,1.36Zm2.63-6.84h0s4.19,5.64,4.19,5.64l-4.19-5.64Zm8.05-45.13c.58-.27,1.18-.48,1.81-.61-.63.14-1.23.34-1.81.61Zm9.96,51.53c.22-.26.42-.54.61-.82h0c-.19.28-.39.56-.61.82Zm.8-48.79c-.22-.31-.46-.62-.73-.91.27.29.5.59.73.91h0Zm36.46.09h0c.15-.21.31-.41.47-.6-.17.2-.32.4-.47.6Zm.94,49.14h0s.05.04.07.06c-.02-.02-.05-.04-.07-.06Zm15.24-6.34c0,2.37-.9,4.59-2.52,6.26-.63.64-1.34,1.18-2.11,1.6.77-.42,1.49-.95,2.11-1.6,1.63-1.67,2.52-3.89,2.52-6.26v-1.13h0v1.13Zm15.45-38.81c-.4-.57-.82-1.1-1.28-1.61.46.51.88,1.05,1.28,1.61h0Zm2.53,45.15c-.06-.06-.12-.13-.18-.19-.08.09-.16.18-.25.27-.3.3-.63.58-.97.83.34-.25.67-.53.97-.83.09-.09.16-.18.25-.27.06.06.11.13.18.19.21.21.43.4.65.59-.23-.18-.45-.38-.65-.59Zm16.67,2.54c1.53-.08,3.02-.27,4.46-.58-1.44.31-2.92.51-4.46.58Zm9.18-53.2c.75.33,1.49.69,2.2,1.1.69.39,1.34.81,1.97,1.25-.64-.44-1.29-.87-1.97-1.25-.72-.4-1.45-.77-2.2-1.1Zm2.2,49.99c1.95-1.1,3.69-2.42,5.21-3.95-1.52,1.53-3.26,2.86-5.21,3.95Zm9.12-39.75c-.3-.53-.61-1.05-.94-1.55.33.5.65,1.01.94,1.55.21.37.4.75.58,1.13-.19-.38-.38-.76-.58-1.13Zm19.79-12.61c1.3-.17,2.63-.26,3.99-.26,4.82,0,9.24,1.1,13.13,3.28-3.89-2.17-8.31-3.28-13.13-3.28-1.37,0-2.7.09-3.99.26Zm17.16,52.8c-1.45.82-2.98,1.48-4.59,2,1.6-.51,3.13-1.18,4.59-2,.49-.28.98-.57,1.44-.88-.47.31-.95.6-1.44.88Zm5.28-45.77c1.17,1.17,2.22,2.46,3.13,3.87-.92-1.41-1.96-2.7-3.13-3.87Zm4.7,35.09c-.22.45-.44.89-.68,1.33-.28.5-.57.98-.87,1.45.31-.47.6-.96.87-1.45.24-.44.47-.88.68-1.33.07.15.15.29.22.44-.07-.15-.15-.29-.22-.44Zm3.7,5.62c.69.79,1.44,1.53,2.23,2.22-.79-.69-1.54-1.43-2.23-2.22Zm15.48-47.74c1.3-.17,2.63-.26,3.99-.26,4.82,0,9.24,1.1,13.13,3.28,1.49.83,2.86,1.8,4.11,2.88-1.25-1.09-2.62-2.05-4.11-2.88-3.89-2.17-8.31-3.28-13.13-3.28-1.36,0-2.7.09-3.99.26Zm17.16,52.8c-.48.27-.98.53-1.48.77-1.5.72-3.08,1.28-4.73,1.69,1.65-.41,3.23-.98,4.73-1.69.5-.24.99-.49,1.48-.77,2.47-1.39,4.62-3.14,6.43-5.23-1.81,2.09-3.96,3.84-6.43,5.23Zm10.14-11.02c-.26.57-.54,1.12-.84,1.67-.55,1-1.17,1.94-1.83,2.83.67-.89,1.28-1.83,1.83-2.83.3-.55.58-1.1.84-1.67h0Zm-.85-29.44c-.83-1.49-1.79-2.86-2.88-4.11,1.09,1.25,2.05,2.62,2.88,4.11.31.55.59,1.11.85,1.68-.26-.57-.54-1.13-.85-1.68Zm3.48,40.68h0s.05.04.07.06c-.02-.02-.05-.04-.07-.06Zm28.05-.66c1.95-1.1,3.69-2.42,5.21-3.95-1.52,1.53-3.26,2.86-5.21,3.95Zm9.89-10.69c-.24.51-.49,1.01-.77,1.51.27-.49.53-.99.77-1.51h0Zm0-27.55c-.16-.34-.34-.67-.51-1,.17.33.35.66.51,1h0Zm36.33,38.9c-.17-.17-.33-.35-.49-.54-.16.18-.32.36-.49.53-.32.31-.65.6-1,.86.35-.26.69-.54,1-.86.17-.17.33-.35.49-.53.16.18.32.36.49.54.21.21.43.4.65.59-.23-.18-.45-.38-.65-.59Zm37.2-11.03h0c0,.2-.03.41-.04.61.01-.2.04-.41.04-.61Zm-.08,1.22c.05.4.08.8.08,1.19,0-.4-.03-.8-.08-1.19h0Zm.08,3.61h0c0-.4-.03-.8-.08-1.19.05.4.08.8.08,1.19Zm-6.11-24.72c.63-.19,1.22-.45,1.78-.77-.56.32-1.16.58-1.78.77h0Zm.1,10.97c.22-.64.38-1.3.45-1.99-.07.69-.23,1.36-.45,1.99Zm.5-7.75c0,.4-.03.8-.08,1.21.06-.4.08-.81.08-1.21h0Zm2.84,27.84c-.31.3-.64.57-.99.81.34-.24.67-.52.99-.81.21-.21.42-.42.61-.64-.19.22-.39.44-.61.64Zm2.58-42.98h0c.05-.4.08-.8.08-1.2,0,.4-.03.8-.08,1.2Z"></path><path id="Combined-Shape" class="cls-5" d="m22.57,55.12c-3.68,0-7.09-.85-10.14-2.52-3.21-1.76-5.48-4.15-6.73-7.1-.34-.8-.5-1.52-.5-2.21,0-1.32.5-2.53,1.43-3.5.79-.82,1.8-1.37,3.02-1.64.31-.09.73-.13,1.22-.13,1.15,0,2.23.33,3.23.97,1,.65,1.75,1.53,2.23,2.62.14.29.59.93,1.98,1.63,1.26.64,2.69.96,4.26.96,1.79,0,3.28-.38,4.43-1.14.91-.6,1.1-1.19,1.1-1.9,0-.93-.34-1.66-1.1-2.36-.89-.81-2.51-1.36-4.69-1.57-4.66-.45-8.45-1.88-11.25-4.24-3.04-2.57-4.59-5.85-4.59-9.75,0-2.79.83-5.25,2.47-7.32,1.54-1.94,3.64-3.44,6.23-4.43,2.42-.93,5.14-1.39,8.08-1.39,3.36,0,6.28.72,8.68,2.13,2.35,1.38,4.35,3.36,5.95,5.87.72,1.13,1.08,2.29,1.08,3.45,0,1.76-.83,3.31-2.34,4.36-.97.62-1.99.91-3.09.91s-2.04-.26-2.95-.78c-.95-.54-1.69-1.3-2.2-2.24-.54-.88-1.23-1.57-2.07-2.06-.82-.47-1.96-.71-3.4-.71-1.85,0-3.3.32-4.3.94-.59.37-.78.72-.78,1.42,0,.61.15,1.14.89,1.75.39.32,1.72,1.11,5.59,1.51,4.57.45,8.24,1.91,10.89,4.32,2.83,2.57,4.26,5.96,4.26,10.06,0,3.02-.86,5.68-2.55,7.9-1.62,2.12-3.78,3.72-6.41,4.75-2.46.96-5.12,1.45-7.91,1.45m52.06-.48c-.75,0-1.52-.15-2.26-.44-.96-.37-1.74-.97-2.3-1.78l-15.43-20.36v16.88c0,1.54-.56,2.93-1.61,4.01-1.08,1.11-2.5,1.69-4.12,1.69s-2.96-.56-4.03-1.63c-1.08-1.07-1.65-2.47-1.65-4.07V16.23c0-1.59.57-3,1.65-4.07,1.08-1.07,2.47-1.63,4.03-1.63.85,0,1.69.2,2.49.59.74.37,1.36.84,1.86,1.4l.12.14,15.53,20.49v-16.92c0-1.61.59-3.04,1.71-4.11,1.09-1.04,2.48-1.59,4.02-1.59s2.95.56,4.03,1.63c1.08,1.08,1.65,2.48,1.65,4.08v32.7c0,1.59-.57,3-1.65,4.07-1.07,1.06-2.47,1.63-4.03,1.63m17.19,0c-1.56,0-2.97-.57-4.05-1.65-1.09-1.08-1.67-2.49-1.67-4.05V16.23c0-1.61.59-3.04,1.71-4.11,1.09-1.04,2.48-1.59,4.02-1.59s3,.56,4.08,1.63c1.08,1.07,1.65,2.48,1.65,4.07v32.7c0,1.54-.56,2.93-1.61,4.01-1.08,1.11-2.5,1.69-4.12,1.69m31.75.48c-4.04,0-7.8-1.01-11.16-3.01-3.35-1.99-6.02-4.75-7.95-8.19-1.92-3.43-2.89-7.25-2.89-11.36s.97-7.88,2.89-11.29c1.92-3.42,4.59-6.17,7.94-8.18,3.37-2.02,7.12-3.04,11.17-3.04,2.82,0,5.34.39,7.48,1.15,2.13.76,4.28,2.01,6.4,3.7.76.56,1.37,1.31,1.72,2.13.3.71.45,1.49.45,2.34,0,1.54-.63,2.96-1.78,3.97-1.06.94-2.35,1.44-3.76,1.44s-2.62-.45-3.72-1.34c-1.1-.93-2.12-1.58-3.06-1.95-.87-.34-2.17-.53-3.74-.53-1.94,0-3.68.49-5.3,1.5-1.65,1.02-2.98,2.44-3.95,4.21-.98,1.79-1.48,3.76-1.48,5.88s.5,4.13,1.48,5.89c.98,1.76,2.31,3.18,3.96,4.2,1.62,1.01,3.36,1.5,5.3,1.5,2.43,0,4.74-.84,7.05-2.56,1.16-.81,2.33-1.21,3.52-1.21,1.49,0,2.87.59,3.87,1.67.96,1.03,1.47,2.37,1.47,3.89s-.6,2.93-1.72,4.05l-.12.12-.14.11c-4.06,3.25-8.75,4.9-13.92,4.9m46.22-.48c-1.97,0-3.65-.87-4.73-2.45l-10-13.44v10.19c0,1.56-.58,2.96-1.67,4.05-1.09,1.08-2.49,1.65-4.05,1.65s-2.89-.56-3.99-1.61c-1.14-1.09-1.74-2.5-1.74-4.09V16.23c0-1.58.6-3,1.74-4.09,1.1-1.06,2.48-1.61,3.99-1.61s2.96.57,4.05,1.65c1.09,1.09,1.67,2.49,1.67,4.05v6.83l10.67-10.59c.65-.65,1.29-1.12,1.94-1.42.73-.34,1.54-.52,2.41-.52,2,0,3.24.89,3.93,1.63.92.99,1.41,2.25,1.41,3.64,0,1.69-.65,3.22-1.87,4.44l-10.46,10.42,11.03,14.89c.74,1.04,1.11,2.19,1.11,3.44,0,1.39-.48,2.7-1.38,3.77-1.03,1.21-2.46,1.88-4.05,1.88m14.46,0c-1.56,0-2.96-.57-4.05-1.65-1.09-1.08-1.67-2.49-1.67-4.05V16.23c0-1.61.59-3.03,1.71-4.11,1.09-1.04,2.48-1.59,4.02-1.59h22.01c1.57,0,2.96.53,4.01,1.54,1.09,1.04,1.67,2.43,1.67,4.02s-.61,2.97-1.71,3.99c-1.04.96-2.42,1.47-3.96,1.47h-16.29v5.36h10.78c1.52,0,2.88.52,3.95,1.5,1.12,1.03,1.73,2.46,1.73,4.01s-.61,2.98-1.73,4.01c-1.06.98-2.43,1.5-3.95,1.5h-10.78v5.7h16.29c1.55,0,2.92.51,3.97,1.47,1.1,1.02,1.71,2.43,1.71,3.99s-.58,2.97-1.67,4.02c-1.05,1.01-2.44,1.54-4.01,1.54h-22.01Zm45.3-25.56c1.44,0,2.51-.34,3.36-1.08.72-.63,1.04-1.37,1.04-2.4,0-1.24-.36-2.16-1.15-2.9-.83-.79-1.87-1.15-3.26-1.15h-3.04v7.54h3.04Zm11.44,25.56c-2.03,0-3.77-.95-4.88-2.67l-7.46-11.87h-2.15v8.84c0,1.54-.56,2.93-1.61,4.01-1.08,1.11-2.5,1.69-4.12,1.69s-2.96-.57-4.05-1.65c-1.09-1.09-1.67-2.49-1.67-4.05V16.23c0-1.61.59-3.03,1.71-4.11,1.09-1.04,2.48-1.59,4.02-1.59h8.77c2.91,0,5.58.63,7.94,1.86,2.43,1.28,4.35,3.1,5.7,5.42,1.34,2.29,2.02,4.91,2.02,7.79s-.77,5.55-2.28,7.84c-.83,1.26-1.85,2.37-3.02,3.29l5.74,9.15c.65,1.03.97,2.14.97,3.29,0,1.5-.55,2.85-1.6,3.88-.72.72-2.01,1.58-4.03,1.58h0Zm21.82-10.82c2.12,0,4.01-.47,5.64-1.41,1.61-.93,2.84-2.2,3.75-3.89.93-1.73,1.4-3.73,1.4-5.96s-.47-4.22-1.39-5.92c-.91-1.67-2.14-2.94-3.75-3.87-1.62-.93-3.52-1.41-5.64-1.41h-3.09v22.46h3.09Zm-8.82,10.82c-1.56,0-2.96-.57-4.05-1.65-1.09-1.09-1.67-2.49-1.67-4.05V16.23c0-1.61.59-3.03,1.71-4.11,1.09-1.04,2.48-1.59,4.02-1.59h8.82c4.21,0,8.03.95,11.36,2.83,3.36,1.9,6.02,4.56,7.89,7.92,1.85,3.32,2.79,7.11,2.79,11.29s-.94,7.98-2.79,11.31c-1.87,3.37-4.53,6.05-7.89,7.94-3.33,1.88-7.15,2.83-11.36,2.83h-8.82Zm54.65-33.67c-2.2,0-4.17.5-5.86,1.49-1.68.98-3.01,2.36-3.96,4.09-.97,1.77-1.46,3.79-1.46,6.01s.49,4.24,1.46,6.01c.96,1.76,2.26,3.11,3.98,4.12,1.7,1,3.66,1.51,5.83,1.51s4.12-.51,5.82-1.51c1.72-1.02,3.02-2.36,3.99-4.12.97-1.77,1.46-3.79,1.46-6.01s-.49-4.24-1.46-6.01c-.96-1.76-2.26-3.1-3.96-4.09-1.68-.99-3.65-1.49-5.85-1.49m0,34.15c-4.3,0-8.21-.97-11.62-2.87-3.45-1.93-6.17-4.67-8.08-8.13-1.88-3.41-2.83-7.3-2.83-11.56s.95-8.15,2.83-11.54c1.91-3.45,4.63-6.17,8.08-8.1,3.41-1.9,7.32-2.87,11.62-2.87s8.16.97,11.57,2.87c3.45,1.93,6.17,4.65,8.1,8.09,1.9,3.4,2.87,7.29,2.87,11.55s-.96,8.16-2.86,11.57c-1.92,3.46-4.64,6.19-8.07,8.11-3.39,1.91-7.29,2.87-11.6,2.87m46.32-34.15c-2.2,0-4.17.5-5.86,1.49-1.68.98-3.01,2.36-3.95,4.09-.97,1.77-1.46,3.79-1.46,6.01s.49,4.24,1.46,6.01c.96,1.76,2.27,3.11,3.98,4.12,1.7,1,3.66,1.51,5.83,1.51s4.12-.51,5.82-1.51c1.72-1.01,3.02-2.36,3.99-4.12.97-1.77,1.46-3.79,1.46-6.01s-.49-4.24-1.46-6.01c-.96-1.76-2.26-3.1-3.96-4.09-1.68-.99-3.65-1.49-5.85-1.49m0,34.15c-4.3,0-8.21-.97-11.62-2.87-3.45-1.93-6.17-4.67-8.08-8.13-1.88-3.41-2.83-7.3-2.83-11.56s.95-8.15,2.83-11.54c1.91-3.45,4.63-6.17,8.08-8.1,3.41-1.9,7.32-2.87,11.62-2.87s8.16.97,11.57,2.87c3.45,1.93,6.17,4.65,8.1,8.09,1.9,3.4,2.86,7.29,2.86,11.55s-.96,8.16-2.86,11.57c-1.92,3.46-4.64,6.19-8.07,8.11-3.39,1.91-7.29,2.87-11.6,2.87m41.06-11.31c2.12,0,4.01-.47,5.64-1.41,1.62-.93,2.84-2.2,3.75-3.89.93-1.73,1.4-3.73,1.4-5.96s-.47-4.21-1.39-5.92c-.91-1.68-2.13-2.94-3.75-3.87-1.62-.93-3.52-1.41-5.64-1.41h-3.09v22.46h3.09Zm-8.81,10.82c-1.56,0-2.96-.57-4.05-1.65-1.09-1.09-1.67-2.49-1.67-4.05V16.23c0-1.61.59-3.03,1.71-4.11,1.09-1.04,2.48-1.59,4.02-1.59h8.81c4.21,0,8.03.95,11.36,2.83,3.36,1.9,6.02,4.56,7.89,7.92,1.85,3.32,2.79,7.11,2.79,11.29s-.94,7.98-2.79,11.31c-1.87,3.37-4.53,6.05-7.89,7.94-3.33,1.88-7.15,2.83-11.36,2.83h-8.81Zm40.52,0c-1.58,0-2.99-.59-4.07-1.69-1.05-1.08-1.61-2.46-1.61-4.01V16.23c0-1.56.58-2.96,1.67-4.05,1.09-1.08,2.48-1.65,4.01-1.65s2.97.57,4.06,1.65c1.09,1.08,1.67,2.48,1.67,4.05v27h14.44c1.56,0,2.96.57,4.05,1.65,1.1,1.08,1.67,2.49,1.67,4.05s-.58,2.97-1.67,4.05c-1.09,1.08-2.49,1.65-4.05,1.65h-20.16Zm33.75,0c-1.56,0-2.96-.57-4.05-1.65-1.09-1.09-1.67-2.49-1.67-4.05V16.23c0-1.61.59-3.04,1.71-4.11,1.09-1.04,2.48-1.59,4.02-1.59h22.01c1.57,0,2.96.53,4.01,1.54,1.09,1.05,1.67,2.44,1.67,4.02s-.61,2.97-1.71,3.99c-1.05.96-2.42,1.47-3.97,1.47h-16.29v5.36h10.78c1.52,0,2.88.52,3.94,1.5,1.12,1.03,1.73,2.46,1.73,4.01s-.61,2.97-1.73,4.01c-1.06.98-2.43,1.5-3.95,1.5h-10.78v5.7h16.29c1.55,0,2.92.51,3.97,1.47,1.11,1.02,1.71,2.44,1.71,3.99s-.58,2.97-1.67,4.02c-1.05,1.01-2.44,1.54-4.01,1.54h-22.01Z"></path><path id="Combined-Shape-2" class="cls-7" d="m22.57,52.71c-3.68,0-7.09-.85-10.14-2.52-3.21-1.76-5.48-4.15-6.73-7.1-.34-.8-.5-1.52-.5-2.21,0-1.32.5-2.53,1.43-3.5.79-.82,1.8-1.37,3.02-1.64.31-.09.73-.13,1.22-.13,1.15,0,2.23.33,3.23.97,1,.65,1.75,1.53,2.23,2.62.14.29.59.93,1.98,1.63,1.26.64,2.69.96,4.26.96,1.79,0,3.28-.38,4.43-1.14.91-.6,1.1-1.19,1.1-1.9,0-.93-.34-1.66-1.1-2.36-.89-.81-2.51-1.36-4.69-1.57-4.66-.45-8.45-1.88-11.25-4.24-3.04-2.57-4.59-5.85-4.59-9.75,0-2.79.83-5.25,2.47-7.32,1.54-1.94,3.64-3.44,6.23-4.43,2.42-.93,5.14-1.39,8.08-1.39,3.36,0,6.28.72,8.68,2.13,2.35,1.38,4.35,3.36,5.95,5.87.72,1.13,1.08,2.29,1.08,3.45,0,1.76-.83,3.31-2.34,4.36-.97.62-1.99.91-3.09.91s-2.04-.26-2.95-.78c-.95-.54-1.69-1.3-2.2-2.24-.54-.88-1.23-1.57-2.07-2.06-.82-.47-1.96-.71-3.4-.71-1.85,0-3.3.32-4.3.94-.59.37-.78.72-.78,1.42,0,.61.15,1.14.89,1.75.39.32,1.72,1.11,5.59,1.51,4.57.45,8.24,1.91,10.89,4.32,2.83,2.57,4.26,5.96,4.26,10.06,0,3.02-.86,5.68-2.55,7.9-1.62,2.12-3.78,3.72-6.41,4.75-2.46.96-5.12,1.45-7.91,1.45m52.06-.48c-.75,0-1.52-.15-2.26-.44-.96-.37-1.74-.97-2.3-1.78l-15.43-20.36v16.88c0,1.54-.56,2.93-1.61,4.01-1.08,1.11-2.5,1.69-4.12,1.69s-2.96-.56-4.03-1.63c-1.08-1.07-1.65-2.47-1.65-4.07V13.82c0-1.59.57-3,1.65-4.07,1.08-1.07,2.47-1.63,4.03-1.63.85,0,1.69.2,2.49.59.74.37,1.36.84,1.86,1.4l.12.14,15.53,20.49V13.82c0-1.61.59-3.04,1.71-4.11,1.09-1.04,2.48-1.59,4.02-1.59s2.95.56,4.03,1.63c1.08,1.08,1.65,2.48,1.65,4.08v32.7c0,1.59-.57,3-1.65,4.07-1.07,1.06-2.47,1.63-4.03,1.63m17.19,0c-1.56,0-2.97-.57-4.05-1.65-1.09-1.08-1.67-2.49-1.67-4.05V13.82c0-1.61.59-3.04,1.71-4.11,1.09-1.04,2.48-1.59,4.02-1.59s3,.56,4.08,1.63c1.08,1.07,1.65,2.48,1.65,4.07v32.7c0,1.54-.56,2.93-1.61,4.01-1.08,1.11-2.5,1.69-4.12,1.69m31.75.48c-4.04,0-7.8-1.01-11.16-3.01-3.35-1.99-6.02-4.75-7.95-8.19-1.92-3.43-2.89-7.25-2.89-11.36s.97-7.88,2.89-11.29c1.92-3.42,4.59-6.17,7.94-8.18,3.37-2.02,7.12-3.04,11.17-3.04,2.82,0,5.34.39,7.48,1.15,2.13.76,4.28,2.01,6.4,3.7.76.56,1.37,1.31,1.72,2.13.3.71.45,1.49.45,2.34,0,1.54-.63,2.96-1.78,3.97-1.06.94-2.35,1.44-3.76,1.44s-2.62-.45-3.72-1.34c-1.1-.93-2.12-1.58-3.06-1.95-.87-.34-2.17-.53-3.74-.53-1.94,0-3.68.49-5.3,1.5-1.65,1.02-2.98,2.44-3.95,4.21-.98,1.79-1.48,3.76-1.48,5.88s.5,4.13,1.48,5.89c.98,1.76,2.31,3.18,3.96,4.2,1.62,1.01,3.36,1.5,5.3,1.5,2.43,0,4.74-.84,7.05-2.56,1.16-.81,2.33-1.21,3.52-1.21,1.49,0,2.87.59,3.87,1.67.96,1.03,1.47,2.37,1.47,3.89s-.6,2.93-1.72,4.05l-.12.12-.14.11c-4.06,3.25-8.75,4.9-13.92,4.9m46.22-.48c-1.97,0-3.65-.87-4.73-2.45l-10-13.44v10.19c0,1.56-.58,2.96-1.67,4.05-1.09,1.08-2.49,1.65-4.05,1.65s-2.89-.56-3.99-1.61c-1.14-1.09-1.74-2.5-1.74-4.09V13.82c0-1.58.6-3,1.74-4.09,1.1-1.06,2.48-1.61,3.99-1.61s2.96.57,4.05,1.65c1.09,1.09,1.67,2.49,1.67,4.05v6.83l10.67-10.59c.65-.65,1.29-1.12,1.94-1.42.73-.34,1.54-.52,2.41-.52,2,0,3.24.89,3.93,1.63.92.99,1.41,2.25,1.41,3.64,0,1.69-.65,3.22-1.87,4.44l-10.46,10.42,11.03,14.89c.74,1.04,1.11,2.19,1.11,3.44,0,1.39-.48,2.7-1.38,3.77-1.03,1.21-2.46,1.88-4.05,1.88m14.46,0c-1.56,0-2.96-.57-4.05-1.65-1.09-1.08-1.67-2.49-1.67-4.05V13.82c0-1.61.59-3.03,1.71-4.11,1.09-1.04,2.48-1.59,4.02-1.59h22.01c1.57,0,2.96.53,4.01,1.54,1.09,1.04,1.67,2.43,1.67,4.02s-.61,2.97-1.71,3.99c-1.04.96-2.42,1.47-3.96,1.47h-16.29v5.36h10.78c1.52,0,2.88.52,3.95,1.5,1.12,1.03,1.73,2.46,1.73,4.01s-.61,2.98-1.73,4.01c-1.06.98-2.43,1.5-3.95,1.5h-10.78v5.7h16.29c1.55,0,2.92.51,3.97,1.47,1.1,1.02,1.71,2.43,1.71,3.99s-.58,2.97-1.67,4.02c-1.05,1.01-2.44,1.54-4.01,1.54h-22.01Zm45.3-25.56c1.44,0,2.51-.34,3.36-1.08.72-.63,1.04-1.37,1.04-2.4,0-1.24-.36-2.16-1.15-2.9-.83-.79-1.87-1.15-3.26-1.15h-3.04v7.54h3.04Zm11.44,25.56c-2.03,0-3.77-.95-4.88-2.67l-7.46-11.87h-2.15v8.84c0,1.54-.56,2.93-1.61,4.01-1.08,1.11-2.5,1.69-4.12,1.69s-2.96-.57-4.05-1.65c-1.09-1.09-1.67-2.49-1.67-4.05V13.82c0-1.61.59-3.03,1.71-4.11,1.09-1.04,2.48-1.59,4.02-1.59h8.77c2.91,0,5.58.63,7.94,1.86,2.43,1.28,4.35,3.1,5.7,5.42,1.34,2.29,2.02,4.91,2.02,7.79s-.77,5.55-2.28,7.84c-.83,1.26-1.85,2.37-3.02,3.29l5.74,9.15c.65,1.03.97,2.14.97,3.29,0,1.5-.55,2.85-1.6,3.88-.72.72-2.01,1.58-4.03,1.58h0Zm21.82-10.82c2.12,0,4.01-.47,5.64-1.41,1.61-.93,2.84-2.2,3.75-3.89.93-1.73,1.4-3.73,1.4-5.96s-.47-4.22-1.39-5.92c-.91-1.67-2.14-2.94-3.75-3.87-1.62-.93-3.52-1.41-5.64-1.41h-3.09v22.46h3.09Zm-8.82,10.82c-1.56,0-2.96-.57-4.05-1.65-1.09-1.09-1.67-2.49-1.67-4.05V13.82c0-1.61.59-3.03,1.71-4.11,1.09-1.04,2.48-1.59,4.02-1.59h8.82c4.21,0,8.03.95,11.36,2.83,3.36,1.9,6.02,4.56,7.89,7.92,1.85,3.32,2.79,7.11,2.79,11.29s-.94,7.98-2.79,11.31c-1.87,3.37-4.53,6.05-7.89,7.94-3.33,1.88-7.15,2.83-11.36,2.83h-8.82Zm54.65-33.67c-2.2,0-4.17.5-5.86,1.49-1.68.98-3.01,2.36-3.96,4.09-.97,1.77-1.46,3.79-1.46,6.01s.49,4.24,1.46,6.01c.96,1.76,2.26,3.11,3.98,4.12,1.7,1,3.66,1.51,5.83,1.51s4.12-.51,5.82-1.51c1.72-1.02,3.02-2.36,3.99-4.12.97-1.77,1.46-3.79,1.46-6.01s-.49-4.24-1.46-6.01c-.96-1.76-2.26-3.1-3.96-4.09-1.68-.99-3.65-1.49-5.85-1.49m0,34.15c-4.3,0-8.21-.97-11.62-2.87-3.45-1.93-6.17-4.67-8.08-8.13-1.88-3.41-2.83-7.3-2.83-11.56s.95-8.15,2.83-11.54c1.91-3.45,4.63-6.17,8.08-8.1,3.41-1.9,7.32-2.87,11.62-2.87s8.16.97,11.57,2.87c3.45,1.93,6.17,4.65,8.1,8.09,1.9,3.4,2.87,7.29,2.87,11.55s-.96,8.16-2.86,11.57c-1.92,3.46-4.64,6.19-8.07,8.11-3.39,1.91-7.29,2.87-11.6,2.87m46.32-34.15c-2.2,0-4.17.5-5.86,1.49-1.68.98-3.01,2.36-3.95,4.09-.97,1.77-1.46,3.79-1.46,6.01s.49,4.24,1.46,6.01c.96,1.76,2.27,3.11,3.98,4.12,1.7,1,3.66,1.51,5.83,1.51s4.12-.51,5.82-1.51c1.72-1.01,3.02-2.36,3.99-4.12.97-1.77,1.46-3.79,1.46-6.01s-.49-4.24-1.46-6.01c-.96-1.76-2.26-3.1-3.96-4.09-1.68-.99-3.65-1.49-5.85-1.49m0,34.15c-4.3,0-8.21-.97-11.62-2.87-3.45-1.93-6.17-4.67-8.08-8.13-1.88-3.41-2.83-7.3-2.83-11.56s.95-8.15,2.83-11.54c1.91-3.45,4.63-6.17,8.08-8.1,3.41-1.9,7.32-2.87,11.62-2.87s8.16.97,11.57,2.87c3.45,1.93,6.17,4.65,8.1,8.09,1.9,3.4,2.86,7.29,2.86,11.55s-.96,8.16-2.86,11.57c-1.92,3.46-4.64,6.19-8.07,8.11-3.39,1.91-7.29,2.87-11.6,2.87m41.06-11.31c2.12,0,4.01-.47,5.64-1.41,1.62-.93,2.84-2.2,3.75-3.89.93-1.73,1.4-3.73,1.4-5.96s-.47-4.21-1.39-5.92c-.91-1.68-2.13-2.94-3.75-3.87-1.62-.93-3.52-1.41-5.64-1.41h-3.09v22.46h3.09Zm-8.81,10.82c-1.56,0-2.96-.57-4.05-1.65-1.09-1.09-1.67-2.49-1.67-4.05V13.82c0-1.61.59-3.03,1.71-4.11,1.09-1.04,2.48-1.59,4.02-1.59h8.81c4.21,0,8.03.95,11.36,2.83,3.36,1.9,6.02,4.56,7.89,7.92,1.85,3.32,2.79,7.11,2.79,11.29s-.94,7.98-2.79,11.31c-1.87,3.37-4.53,6.05-7.89,7.94-3.33,1.88-7.15,2.83-11.36,2.83h-8.81Zm40.52,0c-1.58,0-2.99-.59-4.07-1.69-1.05-1.08-1.61-2.46-1.61-4.01V13.82c0-1.56.58-2.96,1.67-4.05,1.09-1.08,2.48-1.65,4.01-1.65s2.97.57,4.06,1.65c1.09,1.08,1.67,2.48,1.67,4.05v27h14.44c1.56,0,2.96.57,4.05,1.65,1.1,1.08,1.67,2.49,1.67,4.05s-.58,2.97-1.67,4.05c-1.09,1.08-2.49,1.65-4.05,1.65h-20.16Zm33.75,0c-1.56,0-2.96-.57-4.05-1.65-1.09-1.09-1.67-2.49-1.67-4.05V13.82c0-1.61.59-3.04,1.71-4.11,1.09-1.04,2.48-1.59,4.02-1.59h22.01c1.57,0,2.96.53,4.01,1.54,1.09,1.05,1.67,2.44,1.67,4.02s-.61,2.97-1.71,3.99c-1.05.96-2.42,1.47-3.97,1.47h-16.29v5.36h10.78c1.52,0,2.88.52,3.94,1.5,1.12,1.03,1.73,2.46,1.73,4.01s-.61,2.97-1.73,4.01c-1.06.98-2.43,1.5-3.95,1.5h-10.78v5.7h16.29c1.55,0,2.92.51,3.97,1.47,1.11,1.02,1.71,2.44,1.71,3.99s-.58,2.97-1.67,4.02c-1.05,1.01-2.44,1.54-4.01,1.54h-22.01Z"></path><path id="Combined-Shape-3" class="cls-4" d="m22.57,50.29c-3.68,0-7.09-.85-10.14-2.52-3.21-1.76-5.48-4.15-6.73-7.1-.34-.8-.5-1.52-.5-2.21,0-1.32.5-2.53,1.43-3.5.79-.82,1.8-1.37,3.02-1.64.31-.09.73-.13,1.22-.13,1.15,0,2.23.33,3.23.97,1,.65,1.75,1.53,2.23,2.62.14.29.59.93,1.98,1.63,1.26.64,2.69.96,4.26.96,1.79,0,3.28-.38,4.43-1.14.91-.6,1.1-1.19,1.1-1.9,0-.93-.34-1.66-1.1-2.36-.89-.81-2.51-1.36-4.69-1.57-4.66-.45-8.45-1.88-11.25-4.24-3.04-2.57-4.59-5.85-4.59-9.75,0-2.79.83-5.25,2.47-7.32,1.54-1.94,3.64-3.44,6.23-4.43,2.42-.93,5.14-1.39,8.08-1.39,3.36,0,6.28.72,8.68,2.13,2.35,1.38,4.35,3.36,5.95,5.87.72,1.13,1.08,2.29,1.08,3.45,0,1.76-.83,3.31-2.34,4.36-.97.62-1.99.91-3.09.91s-2.04-.26-2.95-.78c-.95-.54-1.69-1.3-2.2-2.24-.54-.88-1.23-1.57-2.07-2.06-.82-.47-1.96-.71-3.4-.71-1.85,0-3.3.32-4.3.94-.59.37-.78.72-.78,1.42,0,.61.15,1.14.89,1.75.39.32,1.72,1.11,5.59,1.51,4.57.45,8.24,1.91,10.89,4.32,2.83,2.57,4.26,5.96,4.26,10.06,0,3.02-.86,5.68-2.55,7.9-1.62,2.12-3.78,3.72-6.41,4.75-2.46.96-5.12,1.45-7.91,1.45m52.06-.48c-.75,0-1.52-.15-2.26-.44-.96-.37-1.74-.97-2.3-1.78l-15.43-20.36v16.88c0,1.54-.56,2.93-1.61,4.01-1.08,1.11-2.5,1.69-4.12,1.69s-2.96-.56-4.03-1.63c-1.08-1.07-1.65-2.48-1.65-4.07V11.4c0-1.59.57-3,1.65-4.07,1.08-1.07,2.47-1.63,4.03-1.63.85,0,1.69.2,2.49.59.74.37,1.36.84,1.86,1.4l.12.14,15.53,20.49V11.4c0-1.61.59-3.04,1.71-4.11,1.09-1.04,2.48-1.59,4.02-1.59s2.95.56,4.03,1.63c1.08,1.08,1.65,2.48,1.65,4.08v32.7c0,1.59-.57,3-1.65,4.07-1.07,1.06-2.47,1.63-4.03,1.63m17.19,0c-1.56,0-2.97-.57-4.05-1.65-1.09-1.08-1.67-2.49-1.67-4.05V11.4c0-1.61.59-3.04,1.71-4.11,1.09-1.04,2.48-1.59,4.02-1.59s3,.56,4.08,1.63c1.08,1.07,1.65,2.48,1.65,4.07v32.7c0,1.54-.56,2.93-1.61,4.01-1.08,1.11-2.5,1.69-4.12,1.69m31.75.48c-4.04,0-7.8-1.01-11.16-3.01-3.35-1.99-6.02-4.75-7.95-8.19-1.92-3.43-2.89-7.25-2.89-11.36s.97-7.88,2.89-11.29c1.92-3.42,4.59-6.17,7.94-8.18,3.37-2.02,7.12-3.04,11.17-3.04,2.82,0,5.34.39,7.48,1.15,2.13.76,4.28,2.01,6.4,3.7.76.56,1.37,1.31,1.72,2.13.3.71.45,1.49.45,2.34,0,1.54-.63,2.96-1.78,3.97-1.06.94-2.35,1.44-3.76,1.44s-2.62-.45-3.72-1.34c-1.1-.93-2.12-1.58-3.06-1.95-.87-.34-2.17-.53-3.74-.53-1.94,0-3.68.49-5.3,1.5-1.65,1.02-2.98,2.44-3.95,4.21-.98,1.79-1.48,3.76-1.48,5.88s.5,4.13,1.48,5.89c.98,1.76,2.31,3.18,3.96,4.2,1.62,1.01,3.36,1.5,5.3,1.5,2.43,0,4.74-.84,7.05-2.56,1.16-.81,2.33-1.21,3.52-1.21,1.49,0,2.87.59,3.87,1.67.96,1.03,1.47,2.37,1.47,3.89s-.6,2.93-1.72,4.05l-.12.12-.14.11c-4.06,3.25-8.75,4.9-13.92,4.9m46.22-.48c-1.97,0-3.65-.87-4.73-2.45l-10-13.44v10.19c0,1.56-.58,2.96-1.67,4.05-1.09,1.08-2.49,1.65-4.05,1.65s-2.89-.56-3.99-1.61c-1.14-1.09-1.74-2.5-1.74-4.09V11.4c0-1.58.6-3,1.74-4.09,1.1-1.06,2.48-1.61,3.99-1.61s2.96.57,4.05,1.65c1.09,1.09,1.67,2.49,1.67,4.05v6.83l10.67-10.59c.65-.65,1.29-1.12,1.94-1.42.73-.34,1.54-.52,2.41-.52,2,0,3.24.89,3.93,1.63.92.99,1.41,2.25,1.41,3.64,0,1.69-.65,3.22-1.87,4.44l-10.46,10.42,11.03,14.89c.74,1.04,1.11,2.19,1.11,3.44,0,1.39-.48,2.7-1.38,3.77-1.03,1.21-2.46,1.88-4.05,1.88m14.46,0c-1.56,0-2.96-.57-4.05-1.65-1.09-1.08-1.67-2.49-1.67-4.05V11.4c0-1.61.59-3.03,1.71-4.11,1.09-1.04,2.48-1.59,4.02-1.59h22.01c1.57,0,2.96.53,4.01,1.54,1.09,1.04,1.67,2.43,1.67,4.02s-.61,2.97-1.71,3.99c-1.04.96-2.42,1.47-3.96,1.47h-16.29v5.36h10.78c1.52,0,2.88.52,3.95,1.5,1.12,1.03,1.73,2.46,1.73,4.01s-.61,2.98-1.73,4.01c-1.06.98-2.43,1.5-3.95,1.5h-10.78v5.7h16.29c1.55,0,2.92.51,3.97,1.47,1.1,1.02,1.71,2.43,1.71,3.99s-.58,2.97-1.67,4.02c-1.05,1.01-2.44,1.54-4.01,1.54h-22.01Zm45.3-25.56c1.44,0,2.51-.34,3.36-1.08.72-.63,1.04-1.37,1.04-2.4,0-1.24-.36-2.16-1.15-2.9-.83-.79-1.87-1.15-3.26-1.15h-3.04v7.54h3.04Zm11.44,25.56c-2.03,0-3.77-.95-4.88-2.67l-7.46-11.87h-2.15v8.84c0,1.54-.56,2.93-1.61,4.01-1.08,1.11-2.5,1.69-4.12,1.69s-2.96-.57-4.05-1.65c-1.09-1.09-1.67-2.49-1.67-4.05V11.4c0-1.61.59-3.03,1.71-4.11,1.09-1.04,2.48-1.59,4.02-1.59h8.77c2.91,0,5.58.63,7.94,1.86,2.43,1.28,4.35,3.1,5.7,5.42,1.34,2.29,2.02,4.91,2.02,7.79s-.77,5.55-2.28,7.84c-.83,1.26-1.85,2.37-3.02,3.29l5.74,9.15c.65,1.03.97,2.14.97,3.29,0,1.5-.55,2.85-1.6,3.88-.72.72-2.01,1.58-4.03,1.58h0Zm21.82-10.82c2.12,0,4.01-.47,5.64-1.41,1.61-.93,2.84-2.2,3.75-3.89.93-1.73,1.4-3.73,1.4-5.96s-.47-4.22-1.39-5.92c-.91-1.67-2.14-2.94-3.75-3.87-1.62-.93-3.52-1.41-5.64-1.41h-3.09v22.46h3.09Zm-8.82,10.82c-1.56,0-2.96-.57-4.05-1.65-1.09-1.09-1.67-2.49-1.67-4.05V11.4c0-1.61.59-3.03,1.71-4.11,1.09-1.04,2.48-1.59,4.02-1.59h8.82c4.21,0,8.03.95,11.36,2.83,3.36,1.9,6.02,4.56,7.89,7.92,1.85,3.32,2.79,7.11,2.79,11.29s-.94,7.98-2.79,11.31c-1.87,3.37-4.53,6.05-7.89,7.94-3.33,1.88-7.15,2.83-11.36,2.83h-8.82Zm54.65-33.67c-2.2,0-4.17.5-5.86,1.49-1.68.98-3.01,2.36-3.96,4.09-.97,1.77-1.46,3.79-1.46,6.01s.49,4.24,1.46,6.01c.96,1.76,2.26,3.11,3.98,4.12,1.7,1,3.66,1.51,5.83,1.51s4.12-.51,5.82-1.51c1.72-1.02,3.02-2.36,3.99-4.12.97-1.77,1.46-3.79,1.46-6.01s-.49-4.24-1.46-6.01c-.96-1.76-2.26-3.1-3.96-4.09-1.68-.99-3.65-1.49-5.85-1.49m0,34.15c-4.3,0-8.21-.97-11.62-2.87-3.45-1.93-6.17-4.67-8.08-8.13-1.88-3.41-2.83-7.3-2.83-11.56s.95-8.15,2.83-11.54c1.91-3.45,4.63-6.17,8.08-8.1,3.41-1.9,7.32-2.87,11.62-2.87s8.16.97,11.57,2.87c3.45,1.93,6.17,4.65,8.1,8.09,1.9,3.4,2.87,7.29,2.87,11.55s-.96,8.16-2.86,11.57c-1.92,3.46-4.64,6.19-8.07,8.11-3.39,1.91-7.29,2.87-11.6,2.87m46.32-34.15c-2.2,0-4.17.5-5.86,1.49-1.68.98-3.01,2.36-3.95,4.09-.97,1.77-1.46,3.79-1.46,6.01s.49,4.24,1.46,6.01c.96,1.76,2.27,3.11,3.98,4.12,1.7,1,3.66,1.51,5.83,1.51s4.12-.51,5.82-1.51c1.72-1.01,3.02-2.36,3.99-4.12.97-1.77,1.46-3.79,1.46-6.01s-.49-4.24-1.46-6.01c-.96-1.76-2.26-3.1-3.96-4.09-1.68-.99-3.65-1.49-5.85-1.49m0,34.15c-4.3,0-8.21-.97-11.62-2.87-3.45-1.93-6.17-4.67-8.08-8.13-1.88-3.41-2.83-7.3-2.83-11.56s.95-8.15,2.83-11.54c1.91-3.45,4.63-6.17,8.08-8.1,3.41-1.9,7.32-2.87,11.62-2.87s8.16.97,11.57,2.87c3.45,1.93,6.17,4.65,8.1,8.09,1.9,3.4,2.86,7.29,2.86,11.55s-.96,8.16-2.86,11.57c-1.92,3.46-4.64,6.19-8.07,8.11-3.39,1.91-7.29,2.87-11.6,2.87m41.06-11.31c2.12,0,4.01-.47,5.64-1.41,1.62-.93,2.84-2.2,3.75-3.89.93-1.73,1.4-3.73,1.4-5.96s-.47-4.21-1.39-5.92c-.91-1.68-2.13-2.94-3.75-3.87-1.62-.93-3.52-1.41-5.64-1.41h-3.09v22.46h3.09Zm-8.81,10.82c-1.56,0-2.96-.57-4.05-1.65-1.09-1.09-1.67-2.49-1.67-4.05V11.4c0-1.61.59-3.03,1.71-4.11,1.09-1.04,2.48-1.59,4.02-1.59h8.81c4.21,0,8.03.95,11.36,2.83,3.36,1.9,6.02,4.56,7.89,7.92,1.85,3.32,2.79,7.11,2.79,11.29s-.94,7.98-2.79,11.31c-1.87,3.37-4.53,6.05-7.89,7.94-3.33,1.88-7.15,2.83-11.36,2.83h-8.81Zm40.52,0c-1.58,0-2.99-.59-4.07-1.69-1.05-1.08-1.61-2.46-1.61-4.01V11.4c0-1.56.58-2.96,1.67-4.05,1.09-1.08,2.48-1.65,4.01-1.65s2.97.57,4.06,1.65c1.09,1.08,1.67,2.48,1.67,4.05v27h14.44c1.56,0,2.96.57,4.05,1.65,1.1,1.08,1.67,2.49,1.67,4.05s-.58,2.97-1.67,4.05c-1.09,1.08-2.49,1.65-4.05,1.65h-20.16Zm33.75,0c-1.56,0-2.96-.57-4.05-1.65-1.09-1.09-1.67-2.49-1.67-4.05V11.4c0-1.61.59-3.04,1.71-4.11,1.09-1.04,2.48-1.59,4.02-1.59h22.01c1.57,0,2.96.53,4.01,1.54,1.09,1.05,1.67,2.44,1.67,4.02s-.61,2.97-1.71,3.99c-1.05.96-2.42,1.47-3.97,1.47h-16.29v5.36h10.78c1.52,0,2.88.52,3.94,1.5,1.12,1.03,1.73,2.46,1.73,4.01s-.61,2.97-1.73,4.01c-1.06.98-2.43,1.5-3.95,1.5h-10.78v5.7h16.29c1.55,0,2.92.51,3.97,1.47,1.11,1.02,1.71,2.44,1.71,3.99s-.58,2.97-1.67,4.02c-1.05,1.01-2.44,1.54-4.01,1.54h-22.01Z"></path><path id="Combined-Shape-4" class="cls-6" d="m24.15,22.6c-3.95-.4-5.69-1.23-6.45-1.86-1-.83-1.47-1.78-1.47-2.99s.48-2.13,1.54-2.79c1.26-.79,2.99-1.18,5.15-1.18,1.72,0,3.13.31,4.19.92,1.09.63,1.98,1.53,2.68,2.69.37.68.9,1.22,1.58,1.61.67.38,1.39.57,2.16.57s1.5-.2,2.18-.62c1.08-.75,1.65-1.8,1.65-3.03,0-.85-.28-1.72-.83-2.58-1.46-2.3-3.28-4.09-5.4-5.35-2.16-1.27-4.81-1.91-7.87-1.91-2.75,0-5.28.43-7.51,1.29-2.32.89-4.19,2.21-5.55,3.93-1.41,1.77-2.12,3.9-2.12,6.31,0,3.4,1.35,6.27,4.02,8.52,2.55,2.15,6.04,3.46,10.37,3.87,2.56.25,4.44.92,5.61,1.98,1.1,1,1.63,2.16,1.63,3.55s-.58,2.43-1.82,3.25c-1.41.93-3.2,1.4-5.31,1.4-1.81,0-3.49-.38-4.98-1.13-1.39-.7-2.31-1.52-2.72-2.42-.35-.8-.9-1.44-1.63-1.92-.73-.47-1.53-.72-2.36-.72-.36,0-.64.03-.88.1-.91.2-1.65.6-2.22,1.19-.64.66-.98,1.48-.98,2.37,0,.47.12.99.37,1.58,1.11,2.61,3.14,4.74,6.03,6.32,2.81,1.54,5.96,2.32,9.37,2.32,2.59,0,5.06-.45,7.33-1.34,2.36-.92,4.29-2.35,5.72-4.23,1.48-1.93,2.22-4.26,2.22-6.92,0-3.63-1.26-6.62-3.73-8.87-2.39-2.17-5.75-3.49-9.97-3.91M74.64,6.51c-1.12,0-2.13.4-2.91,1.15-.79.76-1.22,1.78-1.22,2.95v21.7l-18.37-24.24-.08-.09c-.36-.41-.82-.75-1.36-1.03-.58-.29-1.18-.43-1.78-.43-1.13,0-2.14.4-2.9,1.16-.77.76-1.17,1.77-1.17,2.93v32.71c0,1.16.41,2.17,1.17,2.93.77.76,1.77,1.16,2.9,1.16s2.2-.42,2.97-1.21c.75-.77,1.15-1.77,1.15-2.88v-21.65l18.35,24.21c.38.54.9.95,1.56,1.2.56.22,1.12.33,1.68.33,1.13,0,2.13-.4,2.9-1.16.77-.76,1.17-1.77,1.17-2.93V10.6c0-1.15-.4-2.16-1.17-2.93-.77-.76-1.77-1.16-2.9-1.16m17.19,0c-1.12,0-2.13.4-2.91,1.15-.79.76-1.21,1.78-1.21,2.95v32.71c0,1.12.41,2.13,1.2,2.9.78.78,1.79,1.19,2.93,1.19s2.2-.42,2.97-1.21c.75-.77,1.15-1.77,1.15-2.88V10.6c0-1.15-.4-2.16-1.17-2.93-.77-.76-1.79-1.16-2.95-1.16m25.61,8.96c1.89-1.17,3.9-1.74,6.15-1.74,1.8,0,3.26.21,4.33.64,1.1.43,2.26,1.16,3.48,2.19.81.65,1.72.98,2.71.98s1.94-.36,2.69-1.03c.81-.72,1.24-1.68,1.24-2.77,0-.63-.11-1.2-.32-1.7-.24-.57-.67-1.08-1.25-1.51-1.98-1.58-3.98-2.74-5.94-3.44-1.97-.7-4.3-1.06-6.94-1.06-3.75,0-7.23.95-10.35,2.81-3.1,1.86-5.58,4.41-7.36,7.59-1.78,3.17-2.69,6.71-2.69,10.5s.9,7.39,2.68,10.57c1.79,3.2,4.27,5.75,7.37,7.59,3.11,1.85,6.59,2.78,10.34,2.78,4.8,0,9.15-1.53,12.93-4.55l.07-.05.06-.06c.81-.81,1.25-1.81,1.25-2.9s-.36-2.06-1.03-2.79c-.71-.76-1.64-1.16-2.7-1.16-.85,0-1.7.29-2.56.9-2.6,1.93-5.22,2.87-8.01,2.87-2.25,0-4.26-.57-6.15-1.74-1.88-1.17-3.4-2.78-4.51-4.78-1.11-2.01-1.68-4.25-1.68-6.68s.57-4.63,1.68-6.66c1.11-2.02,2.63-3.63,4.51-4.8m56.39-5.3c0-.97-.34-1.85-.98-2.54-.47-.51-1.33-1.11-2.75-1.11-.63,0-1.21.12-1.73.37-.48.23-.97.59-1.49,1.11l-13.4,13.29v-10.68c0-1.12-.41-2.13-1.2-2.9-.78-.78-1.8-1.19-2.93-1.19s-2.09.4-2.88,1.17c-.81.78-1.24,1.79-1.24,2.92v32.71c0,1.13.43,2.15,1.24,2.92.8.76,1.79,1.17,2.88,1.17s2.15-.41,2.93-1.19c.78-.78,1.2-1.78,1.2-2.9v-10.99l1.73-1.72,11.19,15.04c.79,1.15,1.97,1.75,3.41,1.75,1.12,0,2.1-.45,2.83-1.32.67-.79,1-1.71,1-2.73,0-.91-.26-1.74-.8-2.48l-11.86-16.01,11.46-11.41c.91-.9,1.39-2.04,1.39-3.29m32.45,4.14c1.16,0,2.13-.35,2.88-1.05.78-.72,1.19-1.69,1.19-2.8s-.4-2.12-1.17-2.85c-.75-.72-1.75-1.1-2.91-1.1h-22.01c-1.12,0-2.13.4-2.91,1.15-.79.76-1.21,1.78-1.21,2.95v32.71c0,1.12.41,2.13,1.2,2.9.78.78,1.79,1.19,2.93,1.19h22.01c1.15,0,2.16-.38,2.91-1.09.77-.73,1.17-1.72,1.17-2.85s-.41-2.08-1.19-2.8c-.75-.69-1.74-1.05-2.88-1.05h-17.89v-8.92h12.39c1.11,0,2.1-.37,2.86-1.08.79-.73,1.21-1.71,1.21-2.82s-.42-2.09-1.21-2.82c-.76-.7-1.75-1.08-2.86-1.08h-12.39v-8.58h17.89Zm18.64,0h4.64c1.8,0,3.22.52,4.35,1.59,1.11,1.05,1.65,2.38,1.65,4.08,0,1.5-.52,2.69-1.6,3.62-1.14.99-2.58,1.47-4.41,1.47h-4.64v-10.75Zm12.83,16.36c1.56-.96,2.85-2.22,3.86-3.74,1.33-2.02,2.01-4.36,2.01-6.95s-.6-4.94-1.8-6.98c-1.2-2.05-2.9-3.67-5.06-4.81-2.12-1.11-4.54-1.68-7.2-1.68h-8.77c-1.12,0-2.13.4-2.91,1.15-.79.76-1.21,1.78-1.21,2.95v32.71c0,1.12.41,2.13,1.2,2.9.78.78,1.8,1.19,2.93,1.19s2.2-.42,2.97-1.21c.75-.78,1.15-1.77,1.15-2.88v-10.45h4.63l7.92,12.61c.82,1.27,2.04,1.94,3.53,1.94s2.39-.61,2.9-1.11c.74-.73,1.13-1.67,1.13-2.74,0-.84-.24-1.66-.73-2.43l-6.55-10.45Zm25.07,9.13h-4.69V14.11h4.69c2.4,0,4.56.55,6.43,1.62,1.88,1.08,3.31,2.56,4.36,4.5,1.05,1.95,1.59,4.2,1.59,6.69s-.54,4.76-1.59,6.72c-1.05,1.96-2.48,3.44-4.36,4.52-1.87,1.08-4.03,1.62-6.43,1.62m10.58-30.66c-3.09-1.74-6.65-2.62-10.58-2.62h-8.82c-1.12,0-2.13.4-2.91,1.15-.79.76-1.21,1.78-1.21,2.95v32.71c0,1.12.41,2.13,1.2,2.9.78.78,1.8,1.19,2.93,1.19h8.82c3.93,0,7.49-.88,10.58-2.62,3.1-1.75,5.55-4.21,7.28-7.33,1.72-3.09,2.58-6.63,2.58-10.52s-.87-7.43-2.59-10.5c-1.73-3.09-4.18-5.55-7.28-7.3m35.26,4.6c2.49,0,4.73.58,6.66,1.71,1.96,1.15,3.45,2.69,4.55,4.71,1.1,2.01,1.66,4.29,1.66,6.78s-.56,4.77-1.66,6.78c-1.1,2.02-2.6,3.57-4.58,4.74-1.95,1.15-4.18,1.73-6.64,1.73s-4.69-.58-6.64-1.73c-1.98-1.17-3.47-2.72-4.58-4.74-1.1-2.01-1.66-4.29-1.66-6.78s.56-4.77,1.66-6.78c1.09-1.99,2.62-3.57,4.55-4.71,1.93-1.14,4.17-1.71,6.66-1.71m10.79-5.03c-3.17-1.77-6.8-2.67-10.79-2.67s-7.67.9-10.84,2.67c-3.19,1.78-5.69,4.3-7.46,7.47-1.75,3.15-2.63,6.77-2.63,10.76s.88,7.61,2.63,10.78c1.76,3.2,4.27,5.72,7.46,7.5,3.17,1.77,6.81,2.67,10.84,2.67s7.67-.9,10.82-2.67c3.17-1.78,5.67-4.3,7.45-7.49,1.76-3.17,2.66-6.8,2.66-10.79s-.9-7.61-2.66-10.77c-1.78-3.18-4.29-5.69-7.48-7.47m35.53,5.03c2.49,0,4.73.58,6.66,1.71,1.96,1.15,3.45,2.69,4.55,4.71,1.1,2.01,1.66,4.29,1.66,6.78s-.56,4.77-1.66,6.78c-1.11,2.02-2.6,3.57-4.58,4.74-1.95,1.15-4.18,1.73-6.64,1.73s-4.69-.58-6.64-1.73c-1.98-1.17-3.47-2.71-4.58-4.74-1.1-2.01-1.66-4.29-1.66-6.78s.56-4.77,1.66-6.78c1.09-1.99,2.62-3.57,4.55-4.71,1.93-1.14,4.17-1.71,6.66-1.71m10.79-5.03c-3.17-1.77-6.8-2.67-10.79-2.67s-7.67.9-10.84,2.67c-3.19,1.78-5.69,4.3-7.46,7.47-1.75,3.15-2.63,6.77-2.63,10.76s.88,7.61,2.63,10.78c1.76,3.2,4.27,5.72,7.46,7.5,3.17,1.77,6.81,2.67,10.84,2.67s7.67-.9,10.82-2.67c3.17-1.78,5.68-4.3,7.45-7.49,1.76-3.17,2.66-6.8,2.66-10.79s-.89-7.61-2.66-10.77c-1.78-3.18-4.29-5.69-7.48-7.47m30.27,31.1h-4.69V14.11h4.69c2.4,0,4.56.55,6.43,1.62,1.88,1.09,3.31,2.56,4.36,4.5,1.05,1.95,1.59,4.2,1.59,6.69s-.54,4.76-1.59,6.72c-1.05,1.96-2.48,3.44-4.36,4.52-1.87,1.08-4.03,1.62-6.43,1.62m10.58-30.66c-3.09-1.74-6.65-2.62-10.58-2.62h-8.81c-1.12,0-2.13.4-2.91,1.15-.79.76-1.21,1.78-1.21,2.95v32.71c0,1.12.41,2.13,1.2,2.9.78.78,1.8,1.19,2.93,1.19h8.81c3.93,0,7.49-.88,10.58-2.62,3.1-1.75,5.55-4.21,7.28-7.33,1.72-3.09,2.58-6.63,2.58-10.52s-.87-7.43-2.59-10.5c-1.73-3.09-4.18-5.55-7.28-7.3m41.29,30.08h-16.04V10.6c0-1.12-.41-2.13-1.2-2.9-.78-.78-1.79-1.19-2.93-1.19s-2.1.41-2.88,1.19c-.78.78-1.2,1.78-1.2,2.9v32.71c0,1.11.4,2.11,1.15,2.88.77.79,1.78,1.21,2.92,1.21h20.16c1.13,0,2.14-.41,2.93-1.19.78-.78,1.2-1.78,1.2-2.9s-.41-2.13-1.2-2.9c-.78-.78-1.8-1.19-2.93-1.19m35.6.39h-17.89v-8.92h12.38c1.11,0,2.1-.37,2.86-1.08.79-.73,1.21-1.71,1.21-2.82s-.42-2.09-1.21-2.82c-.76-.7-1.75-1.08-2.86-1.08h-12.38v-8.58h17.89c1.16,0,2.13-.35,2.89-1.05.78-.72,1.19-1.69,1.19-2.8s-.4-2.12-1.17-2.85c-.75-.72-1.75-1.09-2.91-1.09h-22.01c-1.12,0-2.13.4-2.91,1.15-.8.76-1.22,1.78-1.22,2.95v32.71c0,1.12.41,2.13,1.2,2.9.78.78,1.8,1.19,2.93,1.19h22.01c1.15,0,2.16-.38,2.91-1.1.77-.73,1.17-1.72,1.17-2.85s-.41-2.08-1.19-2.8c-.76-.7-1.73-1.05-2.88-1.05"></path><path class="cls-3" d="m354.97,48.28c-4.1,0-7.81-.91-11.03-2.72-3.25-1.82-5.81-4.39-7.61-7.66-1.78-3.23-2.68-6.92-2.68-10.98s.9-7.74,2.68-10.96c1.8-3.25,4.36-5.81,7.61-7.63,3.23-1.8,6.94-2.72,11.03-2.72s7.76.91,10.99,2.72h0c3.25,1.82,5.82,4.38,7.63,7.62,1.8,3.21,2.71,6.9,2.71,10.96s-.91,7.75-2.71,10.98c-1.81,3.26-4.37,5.83-7.61,7.65-3.21,1.8-6.92,2.72-11.01,2.72Zm0-41.85c-3.96,0-7.54.88-10.64,2.62-3.12,1.74-5.58,4.21-7.3,7.32-1.71,3.09-2.58,6.65-2.58,10.57s.87,7.48,2.58,10.59c1.73,3.13,4.18,5.6,7.3,7.34,3.11,1.74,6.69,2.62,10.64,2.62s7.53-.88,10.62-2.62c3.1-1.74,5.56-4.21,7.3-7.34,1.73-3.11,2.61-6.67,2.61-10.59s-.88-7.48-2.61-10.57c-1.74-3.11-4.2-5.57-7.32-7.32h0c-3.11-1.74-6.67-2.62-10.6-2.62Zm-46.32,41.85c-4.1,0-7.81-.91-11.04-2.72-3.25-1.82-5.81-4.4-7.61-7.66-1.78-3.23-2.68-6.92-2.68-10.98s.9-7.74,2.68-10.96c1.8-3.25,4.36-5.81,7.61-7.63,3.23-1.8,6.94-2.72,11.04-2.72s7.76.91,10.99,2.72h0c3.25,1.82,5.82,4.38,7.63,7.62,1.8,3.21,2.71,6.9,2.71,10.96s-.91,7.75-2.71,10.98c-1.81,3.26-4.37,5.83-7.6,7.65-3.21,1.8-6.92,2.72-11.01,2.72Zm0-41.85c-3.96,0-7.54.88-10.64,2.62-3.12,1.74-5.58,4.21-7.3,7.32-1.71,3.09-2.58,6.65-2.58,10.57s.87,7.48,2.58,10.59c1.73,3.13,4.18,5.6,7.3,7.34,3.1,1.74,6.69,2.62,10.64,2.62s7.53-.88,10.62-2.62c3.1-1.74,5.56-4.21,7.3-7.34,1.73-3.11,2.61-6.67,2.61-10.59s-.88-7.48-2.61-10.57c-1.74-3.11-4.21-5.57-7.32-7.32-3.11-1.74-6.67-2.62-10.59-2.62ZM123.58,48.28c-3.82,0-7.37-.96-10.54-2.84-3.17-1.88-5.69-4.49-7.51-7.74-1.81-3.25-2.73-6.87-2.73-10.77s.92-7.47,2.74-10.7c1.82-3.24,4.34-5.84,7.5-7.73,3.18-1.9,6.73-2.87,10.55-2.87,2.69,0,5.07.37,7.08,1.08,2,.72,4.04,1.9,6.06,3.51.62.46,1.1,1.04,1.36,1.66.23.55.35,1.18.35,1.86,0,1.21-.47,2.27-1.37,3.07-.83.74-1.85,1.13-2.96,1.13s-2.08-.36-2.96-1.07c-1.18-1-2.31-1.72-3.37-2.13-1.02-.4-2.43-.61-4.18-.61-2.17,0-4.11.55-5.93,1.68h0c-1.82,1.13-3.29,2.7-4.37,4.66-1.08,1.97-1.63,4.14-1.63,6.47s.55,4.54,1.63,6.48c1.08,1.94,2.55,3.5,4.38,4.64,1.82,1.13,3.76,1.68,5.93,1.68,2.7,0,5.24-.91,7.77-2.79,2.08-1.46,4.39-1.2,5.8.31.75.8,1.14,1.86,1.14,3.06s-.47,2.3-1.36,3.19l-.09.09c-3.92,3.13-8.35,4.69-13.25,4.69Zm0-41.85c-3.68,0-7.09.93-10.14,2.76-3.04,1.82-5.47,4.33-7.22,7.44-1.75,3.11-2.63,6.58-2.63,10.31s.89,7.25,2.63,10.38c1.75,3.13,4.18,5.64,7.22,7.44,3.05,1.81,6.46,2.73,10.13,2.73,4.71,0,8.97-1.5,12.68-4.46l.38.2-.28-.28c.74-.73,1.13-1.64,1.13-2.62s-.32-1.87-.93-2.51c-1.15-1.23-2.99-1.43-4.74-.21-2.66,1.98-5.36,2.95-8.24,2.95-2.33,0-4.41-.59-6.36-1.8-1.94-1.21-3.51-2.87-4.65-4.93-1.15-2.07-1.73-4.38-1.73-6.87s.58-4.77,1.73-6.85c1.14-2.08,2.71-3.75,4.65-4.95h0c1.95-1.21,4.03-1.8,6.36-1.8,1.85,0,3.36.22,4.48.66,1.14.45,2.35,1.21,3.59,2.26,1.46,1.18,3.52,1.17,4.88-.04.72-.64,1.1-1.5,1.1-2.47,0-.57-.1-1.09-.29-1.55-.21-.49-.6-.96-1.12-1.34-1.96-1.56-3.92-2.7-5.84-3.39-1.93-.69-4.22-1.04-6.81-1.04ZM22.57,48.28c-3.48,0-6.69-.8-9.56-2.37-2.97-1.63-5.06-3.82-6.2-6.52-.27-.64-.4-1.21-.4-1.74,0-1,.38-1.92,1.09-2.65.62-.64,1.44-1.08,2.42-1.3.26-.07.57-.1.97-.1.91,0,1.78.26,2.58.78.8.52,1.4,1.22,1.78,2.09.37.8,1.25,1.57,2.54,2.22,1.43.72,3.04,1.09,4.79,1.09,2.03,0,3.74-.45,5.09-1.34,1.13-.75,1.64-1.65,1.64-2.91s-.49-2.33-1.5-3.25c-1.1-1-2.91-1.63-5.38-1.88-4.42-.42-7.98-1.76-10.59-3.97-2.76-2.33-4.16-5.3-4.16-8.83,0-2.51.74-4.71,2.2-6.56,1.4-1.77,3.33-3.14,5.72-4.05,2.28-.87,4.86-1.32,7.66-1.32,3.14,0,5.86.66,8.08,1.97,2.18,1.29,4.05,3.13,5.54,5.48.59.93.89,1.87.89,2.8,0,1.37-.63,2.53-1.82,3.36-.74.47-1.53.7-2.41.7-.84,0-1.63-.21-2.36-.62-.75-.43-1.33-1.02-1.74-1.77-.66-1.09-1.52-1.95-2.53-2.53-1-.58-2.34-.87-3.99-.87-2.08,0-3.74.38-4.93,1.12-.95.59-1.35,1.33-1.35,2.45s.41,1.92,1.33,2.68c.72.59,2.38,1.38,6.23,1.77,4.31.43,7.75,1.78,10.2,4.01,2.56,2.33,3.86,5.42,3.86,9.17,0,2.75-.78,5.16-2.31,7.16-1.48,1.95-3.47,3.41-5.9,4.36-2.31.91-4.83,1.37-7.48,1.37Zm-11.69-13.88c-.32,0-.57.03-.77.08-.84.19-1.52.55-2.03,1.08-.57.58-.87,1.31-.87,2.09,0,.42.11.88.34,1.42,1.08,2.52,3.04,4.58,5.85,6.13,2.75,1.51,5.83,2.27,9.17,2.27,2.55,0,4.96-.44,7.18-1.32,2.29-.9,4.16-2.28,5.55-4.1,1.42-1.86,2.14-4.11,2.14-6.68,0-3.51-1.21-6.4-3.6-8.57-2.33-2.11-5.61-3.4-9.74-3.81h0c-4.05-.41-5.86-1.29-6.66-1.95-1.1-.91-1.62-1.96-1.62-3.3s.55-2.4,1.73-3.13c1.33-.83,3.13-1.24,5.36-1.24,1.79,0,3.27.33,4.39.98,1.13.65,2.08,1.6,2.83,2.83.34.63.82,1.12,1.44,1.47,1.24.71,2.76.7,3.92-.04.95-.66,1.47-1.6,1.47-2.69,0-.77-.26-1.57-.77-2.37-1.43-2.24-3.2-4-5.27-5.22-2.09-1.23-4.67-1.86-7.67-1.86-2.7,0-5.18.42-7.37,1.26-2.26.86-4.07,2.14-5.38,3.8-1.35,1.7-2.03,3.74-2.03,6.06,0,3.28,1.3,6.04,3.88,8.21,2.48,2.1,5.9,3.37,10.15,3.78,2.65.26,4.61.96,5.84,2.08,1.18,1.08,1.76,2.34,1.76,3.84s-.65,2.7-2,3.58c-1.48.97-3.34,1.47-5.53,1.47-1.88,0-3.61-.4-5.16-1.17-1.47-.74-2.45-1.62-2.91-2.61-.32-.73-.82-1.32-1.49-1.75-.67-.43-1.39-.65-2.14-.65Zm472.62,13.4h-22.01c-1.24,0-2.35-.45-3.21-1.3-.86-.85-1.32-1.96-1.32-3.19V10.6c0-1.28.46-2.39,1.34-3.23.86-.82,1.96-1.26,3.19-1.26h22.01c1.26,0,2.36.42,3.18,1.2.85.81,1.29,1.9,1.29,3.14s-.46,2.3-1.32,3.1c-.83.77-1.9,1.15-3.16,1.15h-17.49v7.78h11.98c1.21,0,2.29.41,3.13,1.18.88.81,1.34,1.89,1.34,3.12s-.46,2.3-1.34,3.12c-.84.77-1.92,1.18-3.13,1.18h-11.98v8.12h17.49c1.26,0,2.32.39,3.16,1.15.86.8,1.32,1.87,1.32,3.1s-.45,2.33-1.29,3.14c-.83.79-1.93,1.21-3.18,1.21Zm-22.01-40.89c-1.02,0-1.93.36-2.63,1.04-.71.69-1.09,1.6-1.09,2.66v32.71c0,1.01.37,1.92,1.08,2.62.71.7,1.62,1.07,2.65,1.07h22.01c1.05,0,1.96-.34,2.63-.98.68-.65,1.05-1.54,1.05-2.56s-.37-1.86-1.06-2.51c-.68-.63-1.56-.94-2.61-.94h-18.29v-9.72h12.79c1.01,0,1.9-.34,2.59-.97.71-.66,1.08-1.53,1.08-2.53s-.38-1.87-1.08-2.53c-.69-.63-1.58-.97-2.59-.97h-12.79v-9.38h18.29c1.05,0,1.93-.32,2.61-.94.7-.64,1.06-1.51,1.06-2.51s-.36-1.91-1.05-2.56c-.67-.64-1.58-.98-2.63-.98h-22.01Zm-13.59,40.89h-20.16c-1.25,0-2.37-.46-3.21-1.33-.83-.85-1.27-1.94-1.27-3.16V10.6c0-1.23.45-2.33,1.31-3.19.86-.85,1.95-1.3,3.16-1.3s2.35.45,3.21,1.3c.86.85,1.32,1.96,1.32,3.19v28.21h15.64c1.24,0,2.35.45,3.21,1.3.86.85,1.31,1.95,1.31,3.19s-.45,2.34-1.32,3.19c-.86.85-1.97,1.3-3.21,1.3Zm-20.16-40.89c-.99,0-1.89.37-2.6,1.07-.71.7-1.08,1.61-1.08,2.62v32.71c0,1.01.36,1.91,1.04,2.6.69.71,1.6,1.09,2.64,1.09h20.16c1.02,0,1.94-.37,2.65-1.07.71-.7,1.08-1.6,1.08-2.62s-.37-1.92-1.08-2.62c-.71-.7-1.62-1.07-2.65-1.07h-16.44V10.6c0-1.01-.37-1.92-1.08-2.62-.71-.7-1.62-1.07-2.65-1.07Zm-31.71,40.89h-8.82c-1.24,0-2.35-.45-3.21-1.3-.86-.85-1.32-1.96-1.32-3.19V10.6c0-1.27.46-2.39,1.34-3.23.86-.82,1.96-1.26,3.19-1.26h8.82c4,0,7.62.9,10.77,2.67h0c3.17,1.79,5.67,4.29,7.43,7.45,1.75,3.13,2.64,6.73,2.64,10.69s-.89,7.57-2.63,10.71c-1.76,3.18-4.26,5.7-7.43,7.48-3.15,1.78-6.77,2.67-10.77,2.67Zm-8.82-40.89c-1.01,0-1.92.36-2.63,1.04-.71.69-1.09,1.6-1.09,2.66v32.71c0,1.01.37,1.92,1.08,2.62s1.62,1.07,2.65,1.07h8.82c3.86,0,7.35-.87,10.38-2.57,3.04-1.71,5.44-4.12,7.13-7.17,1.68-3.03,2.53-6.5,2.53-10.33s-.85-7.29-2.53-10.3c-1.69-3.03-4.09-5.43-7.13-7.15h0c-3.03-1.7-6.52-2.57-10.38-2.57h-8.82Zm-124.39,40.89h-8.82c-1.24,0-2.35-.45-3.21-1.3-.86-.85-1.32-1.96-1.32-3.19V10.6c0-1.27.46-2.39,1.34-3.23.86-.82,1.96-1.26,3.19-1.26h8.82c4,0,7.62.9,10.77,2.67h0c3.17,1.79,5.67,4.29,7.43,7.45,1.75,3.13,2.64,6.73,2.64,10.69s-.89,7.57-2.63,10.71c-1.76,3.18-4.26,5.69-7.43,7.48-3.15,1.78-6.77,2.67-10.77,2.67Zm-8.82-40.89c-1.02,0-1.93.36-2.63,1.04-.71.69-1.09,1.6-1.09,2.66v32.71c0,1.01.37,1.92,1.08,2.62s1.62,1.07,2.65,1.07h8.82c3.86,0,7.35-.87,10.38-2.57,3.04-1.71,5.44-4.12,7.13-7.17,1.68-3.03,2.53-6.5,2.53-10.33s-.85-7.29-2.53-10.3c-1.69-3.03-4.09-5.43-7.13-7.15h0c-3.03-1.7-6.52-2.57-10.38-2.57h-8.82Zm-13,40.89c-1.64,0-2.98-.73-3.87-2.12l-7.8-12.42h-4.01v10.05c0,1.22-.44,2.31-1.27,3.16-.85.87-1.97,1.33-3.26,1.33s-2.35-.45-3.21-1.3c-.86-.85-1.32-1.96-1.32-3.19V10.6c0-1.27.46-2.39,1.34-3.23.86-.82,1.96-1.26,3.19-1.26h8.77c2.71,0,5.2.58,7.38,1.73,2.23,1.17,3.98,2.84,5.22,4.96,1.23,2.1,1.85,4.52,1.85,7.18s-.7,5.08-2.08,7.17c-.96,1.46-2.18,2.68-3.64,3.64l6.34,10.12c.52.84.79,1.72.79,2.64,0,1.17-.43,2.21-1.24,3.02-.56.56-1.58,1.23-3.18,1.23Zm-16.49-15.34h5.26l8.04,12.79c.74,1.14,1.84,1.75,3.19,1.75s2.16-.54,2.62-1c.66-.65,1.01-1.5,1.01-2.45,0-.76-.22-1.51-.67-2.22l-6.77-10.79.34-.21c1.51-.93,2.76-2.15,3.73-3.62,1.29-1.96,1.95-4.22,1.95-6.73s-.59-4.8-1.74-6.77c-1.16-1.99-2.81-3.55-4.9-4.65-2.07-1.08-4.43-1.63-7.01-1.63h-8.77c-1.02,0-1.93.36-2.63,1.04-.71.69-1.09,1.6-1.09,2.66v32.71c0,1.01.37,1.92,1.08,2.62.71.7,1.62,1.07,2.65,1.07s1.99-.38,2.68-1.09c.68-.7,1.04-1.6,1.04-2.6v-10.85Zm-18.24,15.34h-22.01c-1.24,0-2.35-.45-3.21-1.3-.86-.85-1.32-1.96-1.32-3.19V10.6c0-1.27.46-2.39,1.34-3.23.86-.82,1.96-1.26,3.19-1.26h22.01c1.26,0,2.36.42,3.18,1.21.85.81,1.29,1.9,1.29,3.14s-.46,2.3-1.32,3.1c-.83.77-1.89,1.16-3.16,1.16h-17.49v7.78h11.98c1.21,0,2.3.41,3.13,1.18.88.81,1.34,1.89,1.34,3.12s-.46,2.3-1.34,3.12c-.84.77-1.92,1.18-3.14,1.18h-11.98v8.12h17.49c1.24,0,2.33.4,3.16,1.15.86.8,1.32,1.87,1.32,3.1s-.45,2.33-1.29,3.14c-.82.79-1.93,1.21-3.18,1.21Zm-22.01-40.89c-1.02,0-1.93.36-2.63,1.04-.71.69-1.09,1.6-1.09,2.66v32.71c0,1.01.37,1.92,1.08,2.62.71.7,1.62,1.07,2.65,1.07h22.01c1.05,0,1.96-.34,2.63-.98.68-.65,1.05-1.54,1.05-2.56s-.37-1.87-1.06-2.51c-.67-.62-1.57-.94-2.61-.94h-18.29v-9.72h12.79c1.01,0,1.9-.33,2.59-.97.71-.66,1.08-1.53,1.08-2.53s-.38-1.87-1.09-2.53c-.69-.63-1.58-.97-2.59-.97h-12.79v-9.38h18.29c1.05,0,1.93-.32,2.61-.94.7-.64,1.06-1.51,1.06-2.51s-.36-1.91-1.05-2.56c-.67-.64-1.58-.98-2.63-.98h-22.01Zm-14.46,40.89c-1.58,0-2.88-.67-3.74-1.93l-10.9-14.66-1.28,1.27v10.82c0,1.23-.46,2.33-1.32,3.19-.86.85-1.97,1.3-3.21,1.3s-2.29-.44-3.16-1.28c-.89-.85-1.36-1.96-1.36-3.21V10.6c0-1.25.47-2.36,1.36-3.21.87-.84,1.97-1.28,3.16-1.28s2.35.45,3.21,1.3c.86.85,1.32,1.95,1.32,3.19v9.72l12.72-12.62c.56-.55,1.08-.94,1.6-1.19.57-.27,1.21-.41,1.9-.41,1.57,0,2.52.68,3.05,1.24.71.77,1.09,1.74,1.09,2.81,0,1.36-.52,2.59-1.51,3.58l-11.21,11.16,11.65,15.73c.58.81.87,1.72.87,2.72,0,1.12-.37,2.12-1.1,2.99-.8.95-1.89,1.46-3.13,1.46Zm-14.55-17.81l11.46,15.41c.72,1.05,1.78,1.59,3.09,1.59,1,0,1.87-.41,2.52-1.17.6-.71.91-1.54.91-2.47,0-.82-.24-1.58-.72-2.25l-12.06-16.28,11.7-11.65c.83-.83,1.27-1.87,1.27-3.01,0-.87-.3-1.65-.87-2.27-.42-.45-1.18-.99-2.46-.99-.57,0-1.09.11-1.56.33-.44.21-.89.54-1.38,1.03l-14.09,13.97v-11.64c0-1.01-.37-1.92-1.08-2.62-.71-.7-1.62-1.07-2.65-1.07s-1.89.37-2.61,1.06c-.73.7-1.12,1.61-1.12,2.63v32.71c0,1.02.39,1.93,1.12,2.63.72.69,1.62,1.06,2.61,1.06s1.94-.37,2.65-1.07c.71-.7,1.08-1.61,1.08-2.62v-11.16l2.18-2.16Zm-63.42,17.81c-1.24,0-2.35-.45-3.21-1.3-.86-.85-1.32-1.96-1.32-3.19V10.6c0-1.28.46-2.39,1.34-3.23.86-.82,1.96-1.26,3.19-1.26s2.39.44,3.23,1.28c.84.84,1.29,1.95,1.29,3.21v32.71c0,1.22-.44,2.31-1.27,3.16-.85.87-1.97,1.33-3.26,1.33Zm0-40.89c-1.02,0-1.93.36-2.63,1.03-.71.69-1.09,1.6-1.09,2.66v32.71c0,1.01.37,1.92,1.08,2.62.71.7,1.62,1.07,2.65,1.07s1.99-.38,2.68-1.09c.68-.7,1.04-1.6,1.04-2.6V10.6c0-1.04-.36-1.96-1.05-2.64-.69-.68-1.61-1.05-2.67-1.05Zm-17.19,40.89c-.61,0-1.22-.12-1.82-.35-.74-.29-1.33-.74-1.75-1.35l-17.62-23.25v20.46c0,1.22-.44,2.31-1.27,3.16-.85.87-1.97,1.33-3.26,1.33s-2.34-.44-3.19-1.28c-.84-.84-1.29-1.95-1.29-3.21V10.6c0-1.26.45-2.37,1.29-3.21.84-.84,1.95-1.28,3.19-1.28.66,0,1.32.16,1.96.47.59.3,1.09.67,1.49,1.12l.09.1,17.66,23.3V10.6c0-1.28.46-2.39,1.34-3.23.86-.82,1.96-1.26,3.19-1.26s2.34.44,3.18,1.28c.85.84,1.29,1.95,1.29,3.21v32.71c0,1.26-.45,2.37-1.29,3.21-.85.84-1.95,1.28-3.18,1.28Zm-21.99-27.33l19.07,25.16c.34.49.81.85,1.39,1.07,1.55.6,3.12.28,4.15-.75.69-.68,1.05-1.6,1.05-2.64V10.6c0-1.04-.36-1.96-1.06-2.65-.69-.68-1.6-1.04-2.62-1.04s-1.93.36-2.63,1.03c-.71.69-1.09,1.6-1.09,2.66v22.89l-19.16-25.27c-.32-.36-.74-.67-1.23-.92-1.52-.75-3.17-.39-4.22.66-.69.68-1.05,1.6-1.05,2.64v32.71c0,1.05.36,1.96,1.05,2.64.69.69,1.6,1.05,2.62,1.05s1.99-.38,2.68-1.09c.68-.7,1.04-1.6,1.04-2.6v-22.84Zm302.33,20.12c-2.53,0-4.83-.6-6.84-1.79-2.04-1.2-3.59-2.8-4.72-4.89-1.13-2.07-1.71-4.42-1.71-6.97s.57-4.91,1.71-6.98c1.12-2.06,2.71-3.69,4.7-4.86,2-1.17,4.31-1.77,6.87-1.77s4.87.59,6.87,1.77c2.02,1.19,3.56,2.78,4.7,4.86,1.13,2.07,1.71,4.42,1.71,6.97s-.57,4.9-1.71,6.97c-1.14,2.09-2.69,3.68-4.73,4.89-2.01,1.19-4.31,1.79-6.84,1.79Zm0-26.46c-2.42,0-4.59.56-6.46,1.66-1.87,1.1-3.35,2.63-4.4,4.55-1.07,1.95-1.61,4.17-1.61,6.59s.54,4.64,1.61,6.59c1.07,1.96,2.52,3.45,4.43,4.58,1.88,1.11,4.05,1.68,6.43,1.68s4.55-.57,6.43-1.68c1.91-1.13,3.36-2.63,4.43-4.58,1.07-1.95,1.61-4.17,1.61-6.59s-.54-4.64-1.61-6.59c-1.07-1.95-2.51-3.44-4.4-4.56-1.87-1.1-4.04-1.66-6.46-1.66Zm-46.32,26.46c-2.53,0-4.83-.6-6.84-1.79-2.04-1.21-3.59-2.8-4.73-4.89-1.13-2.07-1.71-4.42-1.71-6.97s.57-4.91,1.71-6.98c1.12-2.05,2.71-3.69,4.7-4.86,1.99-1.17,4.31-1.77,6.87-1.77s4.87.59,6.87,1.77c2.02,1.19,3.56,2.78,4.7,4.86,1.13,2.07,1.71,4.42,1.71,6.97s-.57,4.91-1.71,6.97c-1.14,2.08-2.69,3.68-4.73,4.89-2.01,1.19-4.31,1.79-6.84,1.79Zm0-26.46c-2.42,0-4.59.56-6.46,1.66-1.87,1.1-3.35,2.63-4.4,4.55-1.07,1.95-1.61,4.17-1.61,6.59s.54,4.64,1.61,6.59c1.07,1.95,2.52,3.45,4.43,4.58,1.89,1.11,4.05,1.68,6.43,1.68s4.55-.57,6.43-1.68c1.91-1.13,3.36-2.63,4.43-4.58,1.07-1.95,1.61-4.17,1.61-6.59s-.54-4.64-1.61-6.59c-1.07-1.95-2.51-3.44-4.4-4.56-1.87-1.1-4.04-1.66-6.46-1.66Zm87.37,26.07h-5.09V13.71h5.09c2.47,0,4.7.56,6.63,1.67,1.95,1.12,3.43,2.65,4.52,4.66,1.09,2.01,1.64,4.33,1.64,6.88s-.55,4.89-1.64,6.91c-1.09,2.03-2.57,3.56-4.51,4.68-1.93,1.11-4.16,1.67-6.63,1.67Zm-4.29-.8h4.29c2.33,0,4.43-.53,6.23-1.57,1.82-1.04,3.19-2.47,4.21-4.36,1.02-1.91,1.54-4.1,1.54-6.53s-.52-4.61-1.54-6.5c-1.02-1.88-2.39-3.3-4.21-4.35-1.81-1.04-3.91-1.57-6.23-1.57h-4.29v24.88Zm-128.92.8h-5.09V13.71h5.09c2.47,0,4.7.56,6.63,1.67,1.95,1.12,3.43,2.65,4.52,4.66,1.09,2.01,1.64,4.32,1.64,6.88s-.55,4.89-1.64,6.91c-1.09,2.03-2.57,3.56-4.52,4.68-1.93,1.11-4.16,1.67-6.63,1.67Zm-4.29-.8h4.29c2.33,0,4.43-.53,6.23-1.57,1.81-1.04,3.19-2.47,4.21-4.37,1.02-1.9,1.54-4.1,1.54-6.53s-.52-4.61-1.54-6.5c-1.02-1.88-2.4-3.3-4.21-4.35-1.81-1.04-3.91-1.57-6.23-1.57h-4.29v24.88Zm-28.97-13.93h-5.04v-11.55h5.04c1.91,0,3.42.56,4.63,1.7,1.19,1.13,1.77,2.56,1.77,4.37,0,1.62-.57,2.91-1.74,3.92-1.21,1.05-2.74,1.57-4.67,1.57Zm-4.24-.8h4.24c1.72,0,3.08-.45,4.14-1.37.98-.85,1.46-1.94,1.46-3.31,0-1.58-.5-2.81-1.52-3.78-1.05-1-2.39-1.48-4.08-1.48h-4.24v9.95Z"></path><path class="cls-2" d="m496.57,53.25s-.07-.1-.07-.17v-.65c0-.07.02-.13.07-.17.05-.05.11-.07.17-.07h4.96c.07,0,.13.03.17.07.05.05.07.11.07.17v.65c0,.07-.02.13-.07.17-.05.05-.11.07-.17.07h-1.75c-.07,0-.1.03-.1.1v5.67c0,.07-.02.13-.07.17s-.11.07-.17.07h-.84c-.07,0-.13-.02-.17-.07-.05-.05-.07-.11-.07-.17v-5.67c0-.07-.03-.1-.1-.1h-1.67c-.07,0-.13-.03-.17-.07Zm11.29-1.07h.88c.07,0,.13.03.17.07.05.05.07.11.07.17v6.67c0,.07-.02.13-.07.17-.05.05-.11.07-.17.07h-.86c-.07,0-.13-.02-.17-.07-.05-.05-.07-.11-.07-.17v-4.63s-.01-.07-.04-.08c-.03-.01-.05,0-.08.04l-1.06,1.55c-.07.11-.17.17-.29.17h-.24c-.12,0-.22-.05-.28-.17l-1.08-1.55s-.05-.05-.08-.04c-.03.01-.04.04-.04.08v4.63c0,.07-.02.13-.07.17s-.11.07-.17.07h-.84c-.07,0-.13-.02-.17-.07s-.07-.11-.07-.17v-6.67c0-.07.02-.13.07-.17.05-.05.11-.07.17-.07h.88c.12,0,.22.05.29.16l1.45,2.1s.06.04.09.04.06-.01.07-.04l1.45-2.1c.07-.11.16-.16.28-.16Z"></path><rect class="cls-1" x="520.29" y="12.85" width="77.18" height="34.63" rx="9.26" ry="9.26"></rect><path class="cls-2" d="m532.5,22.11c0-.23.18-.43.43-.43h5.23c2.72,0,4.82,1.83,4.82,4.22,0,1.76-1.44,3.13-2.51,3.63,1.21.39,2.97,1.62,2.97,3.72,0,2.56-2.19,4.41-4.98,4.41h-5.52c-.25,0-.43-.21-.43-.43v-15.11Zm5.39,6.28c1.16,0,1.96-.91,1.96-2.05s-.8-1.94-1.96-1.94h-2.44v4h2.44Zm.32,6.57c1.14,0,2.05-.89,2.05-2.08s-1.14-1.99-2.33-1.99h-2.49v4.06h2.76Z"></path><path class="cls-2" d="m547.95,22.11c0-.23.18-.43.43-.43h9.29c.25,0,.43.21.43.43v1.87c0,.23-.18.43-.43.43h-6.76v3.74h5.64c.23,0,.43.21.43.43v1.89c0,.25-.21.43-.43.43h-5.64v4h6.76c.25,0,.43.21.43.43v1.87c0,.23-.18.43-.43.43h-9.29c-.25,0-.43-.21-.43-.43v-15.11Z"></path><path class="cls-2" d="m564.88,24.42h-3.49c-.25,0-.43-.21-.43-.43v-1.87c0-.23.18-.43.43-.43h9.98c.25,0,.43.21.43.43v1.87c0,.23-.18.43-.43.43h-3.49v12.81c0,.23-.21.43-.43.43h-2.12c-.23,0-.43-.21-.43-.43v-12.81Z"></path><path class="cls-2" d="m572.59,37.06l7.1-15.36c.07-.14.18-.25.39-.25h.23c.23,0,.32.11.39.25l7.03,15.36c.14.3-.05.59-.39.59h-1.99c-.34,0-.5-.14-.66-.46l-1.12-2.47h-6.83l-1.12,2.47c-.09.23-.3.46-.66.46h-1.99c-.34,0-.52-.3-.39-.59Zm9.86-4.86l-2.28-5.02h-.07l-2.24,5.02h4.59Z"></path></g></svg> 